<svg id="b5823f4c-b0b0-4471-8ee2-882e7eef742d" data-name="Flat Gradient" xmlns="http://www.w3.org/2000/svg" xmlns:xlink="http://www.w3.org/1999/xlink" viewBox="0 0 64 64">
  <defs>
    <style>
      .gradient-fill { fill: url(#custom-gradient); }
    </style>
    <linearGradient id="custom-gradient" x1="4" y1="32" x2="60" y2="32" gradientUnits="userSpaceOnUse">
      <stop offset="0" stop-color="#091f40"/> <!-- Navy Blue -->
      <stop offset="0.5" stop-color="#c5203e"/> <!-- Red -->
      <stop offset="1" stop-color="#ffffff"/> <!-- White -->
    </linearGradient>
  </defs>
  <path class="gradient-fill" d="M10.7272,39.97037H53.26944a2.87666,2.87666,0,0,0,2.87015-2.87014V12.299a2.87667,2.87667,0,0,0-2.87015-2.87015H10.7272A2.87666,2.87666,0,0,0,7.85706,12.299V37.10023A2.87665,2.87665,0,0,0,10.7272,39.97037Zm-.35-26.61136a1.45974,1.45974,0,0,1,1.45008-1.4601H52.16935a1.45974,1.45974,0,0,1,1.45009,1.4601V36.05019a1.45332,1.45332,0,0,1-1.45009,1.46009H11.82729a1.45331,1.45331,0,0,1-1.45008-1.46009ZM59.67975,48.43083l-4.61023-7.01037a1.94068,1.94068,0,0,0-1.62008-.87H10.5472a1.94068,1.94068,0,0,0-1.62008.87L4.31689,48.43083A1.93466,1.93466,0,0,0,5.937,51.431h52.1227A1.94989,1.94989,0,0,0,59.67975,48.43083Zm-34.90177-.57,1.17-1.78013a.70845.70845,0,0,1,.61-.33H37.4386a.70845.70845,0,0,1,.61.33l1.17005,1.78013a.74262.74262,0,0,1-.61,1.14006H25.388A.74261.74261,0,0,1,24.778,47.8608Zm13.33754.14H25.8749l.82-1.25007H37.29547ZM58.43969,51.831H5.55695a.50149.50149,0,0,0-.5.5A2.0172,2.0172,0,0,0,7.037,54.57115h49.9226A1.98465,1.98465,0,0,0,58.93972,52.591C58.97549,52.23493,58.86323,51.83169,58.43969,51.831Zm-1.48,1.74014h-.00312a.987.987,0,0,0,.95-.74009A.97982.97982,0,0,1,56.95964,53.57111ZM11.82729,36.51023H52.16935a.46345.46345,0,0,0,.45-.46V13.359a.45677.45677,0,0,0-.45-.46H11.82729a.45677.45677,0,0,0-.45.46V36.05019A.46345.46345,0,0,0,11.82729,36.51023ZM31.99832,13.709A11.01361,11.01361,0,0,1,42.99889,24.70957c-.61917,14.59611-21.3904,14.59149-22.00116-.00007A11.00719,11.00719,0,0,1,31.99832,13.709Z"/>
</svg>