<?xml version="1.0" encoding="UTF-8" standalone="no"?>
<svg
   xmlns:dc="http://purl.org/dc/elements/1.1/"
   xmlns:cc="http://creativecommons.org/ns#"
   xmlns:rdf="http://www.w3.org/1999/02/22-rdf-syntax-ns#"
   xmlns:svg="http://www.w3.org/2000/svg"
   xmlns="http://www.w3.org/2000/svg"
   xml:space="preserve"
   style="enable-background:new 0 0 134 134;"
   viewBox="0 0 134 134"
   y="0px"
   x="0px"
   id="Layer_1"
   version="1.1"><metadata
   id="metadata65"><rdf:RDF><cc:Work
       rdf:about=""><dc:format>image/svg+xml</dc:format><dc:type
         rdf:resource="http://purl.org/dc/dcmitype/StillImage" /><dc:title></dc:title></cc:Work></rdf:RDF></metadata><defs
   id="defs63" />
<style
   id="style2"
   type="text/css">
	.st0{fill:#192736;}
	.st1{fill:#FFD75F;}
	.st2{fill:#3AB2E6;}
	.st3{fill:#EC5C68;}
	.st4{fill:#2F8AC4;}
	.st5{fill:#D4455F;}
</style>
<g
   id="g58">
	<circle
   style="fill:#ffffff;fill-opacity:1"
   r="67"
   id="circle4"
   cy="67"
   cx="67"
   class="st0" />
	<g
   id="g56">
		<g
   style="fill:#000000;fill-opacity:1"
   id="g14">
			<g
   style="fill:#000000;fill-opacity:1"
   id="g12">
				<g
   style="fill:#ffffff;fill-opacity:1"
   id="g10">
					<g
   style="fill:#ffffff;fill-opacity:1"
   id="g8">
						<path
   style="fill:#ffffff;fill-opacity:1"
   id="path6"
   d="M54.6,82.5L54.6,82.5c-4-4-6.4-9.4-6.4-15.5c0-6,2.5-11.5,6.4-15.5l0,0c3.4-3.4,3.4-8.8,0-12.2        c-3.4-3.4-8.8-3.4-12.2,0C35.4,46.4,31,56.2,31,67c0,10.8,4.4,20.6,11.5,27.6c3.4,3.4,8.8,3.4,12.2,0        C58,91.3,58,85.9,54.6,82.5L54.6,82.5z"
   class="st1" />
					</g>
				</g>
			</g>
		</g>
		<g
   style="fill:#ffffff;fill-opacity:1"
   id="g24">
			<g
   style="fill:#ffffff;fill-opacity:1"
   id="g22">
				<g
   style="fill:#ffffff;fill-opacity:1"
   id="g20">
					<g
   style="fill:#ffffff;fill-opacity:1"
   id="g18">
						<path
   style="fill:#ffffff;fill-opacity:1"
   id="path16"
   d="M54.6,51.5L54.6,51.5c4-4,9.4-6.4,15.5-6.4c6,0,11.5,2.5,15.5,6.4l0,0c3.4,3.4,8.8,3.4,12.2,0        c3.4-3.4,3.4-8.8,0-12.2c-7.1-7.1-16.8-11.5-27.6-11.5c-10.8,0-20.6,4.4-27.6,11.5c-3.4,3.4-3.4,8.8,0,12.2        C45.8,54.9,51.2,54.9,54.6,51.5L54.6,51.5z"
   class="st2" />
					</g>
				</g>
			</g>
		</g>
		<g
   style="fill:#ffffff;fill-opacity:1"
   id="g34">
			<g
   style="fill:#ffffff;fill-opacity:1"
   id="g32">
				<g
   style="fill:#ffffff;fill-opacity:1"
   id="g30">
					<g
   style="fill:#ffffff;fill-opacity:1"
   id="g28">
						<path
   style="fill:#ffffff;fill-opacity:1"
   id="path26"
   d="M85.6,82.5L85.6,82.5c-4,4-9.4,6.4-15.5,6.4c-6,0-11.5-2.5-15.5-6.4l0,0c-3.4-3.4-8.8-3.4-12.2,0        c-3.4,3.4-3.4,8.8,0,12.2c7.1,7.1,16.8,11.5,27.6,11.5c10.8,0,20.6-4.4,27.6-11.5c3.4-3.4,3.4-8.8,0-12.2        C94.4,79.1,88.9,79.1,85.6,82.5C85.6,82.5,85.6,82.5,85.6,82.5z"
   class="st3" />
					</g>
				</g>
			</g>
		</g>
		<g
   id="g44">
			<g
   id="g42">
				<g
   id="g40">
					<g
   style="fill:#000000;fill-opacity:1"
   id="g38">
						
							<ellipse
   style="fill:#000000;fill-opacity:1"
   id="ellipse36"
   ry="8.6"
   rx="8.6"
   cy="45.5"
   cx="48.5"
   class="st4"
   transform="matrix(0.7069 -0.7073 0.7073 0.7069 -17.9285 47.6431)" />
					</g>
				</g>
			</g>
		</g>
		<g
   id="g54">
			<g
   id="g52">
				<g
   style="fill:#000000;fill-opacity:1"
   id="g50">
					<g
   style="fill:#000000;fill-opacity:1"
   id="g48">
						
							<ellipse
   style="fill:#000000;fill-opacity:1"
   id="ellipse46"
   ry="8.6"
   rx="8.6"
   cy="88.6"
   cx="48.5"
   class="st5"
   transform="matrix(0.7069 -0.7073 0.7073 0.7069 -48.4279 60.2805)" />
					</g>
				</g>
			</g>
		</g>
	</g>
</g>
</svg>
