<?xml version="1.0" encoding="UTF-8" standalone="no"?>
<svg
   xmlns:dc="http://purl.org/dc/elements/1.1/"
   xmlns:cc="http://creativecommons.org/ns#"
   xmlns:rdf="http://www.w3.org/1999/02/22-rdf-syntax-ns#"
   xmlns:svg="http://www.w3.org/2000/svg"
   xmlns="http://www.w3.org/2000/svg"
   xmlns:sodipodi="http://sodipodi.sourceforge.net/DTD/sodipodi-0.dtd"
   xmlns:inkscape="http://www.inkscape.org/namespaces/inkscape"
   inkscape:version="1.0 (4035a4fb49, 2020-05-01)"
   sodipodi:docname="fem.svg"
   version="1.1"
   id="svg2"
   width="320"
   height="320"
   viewBox="0 0 320 320">
  <sodipodi:namedview
     inkscape:current-layer="svg2"
     inkscape:window-maximized="1"
     inkscape:window-y="-8"
     inkscape:window-x="-8"
     inkscape:cy="144.94118"
     inkscape:cx="160"
     inkscape:zoom="2.65625"
     showgrid="false"
     id="namedview7"
     inkscape:window-height="1017"
     inkscape:window-width="1920"
     inkscape:pageshadow="2"
     inkscape:pageopacity="0"
     guidetolerance="10"
     gridtolerance="10"
     objecttolerance="10"
     borderopacity="1"
     bordercolor="#666666"
     pagecolor="#ffffff" />
  <metadata
     id="metadata8">
    <rdf:RDF>
      <cc:Work
         rdf:about="">
        <dc:format>image/svg+xml</dc:format>
        <dc:type
           rdf:resource="http://purl.org/dc/dcmitype/StillImage" />
        <dc:title />
      </cc:Work>
    </rdf:RDF>
  </metadata>
  <defs
     id="defs6" />
  <g
     transform="translate(71.529412,-1.1294118)"
     id="g10">
    <path
       id="path20"
       d="M -0.40588059,263.06985 C -13.911901,259.77741 -25.401741,249.92429 -32.020421,235.95882 c -6.3105,-13.31523 -7.03897,-20.42209 -3.3826,-33 0.46875,-1.6125 -0.34175,-2.48438 -4.18321,-4.5 -15.80837,-8.29469 -24.1914,-26.18784 -22.95675,-49 2.29454,-42.39513 31.2844,-82.854345 74.1371,-103.468185 35.37309,-17.015854 75.15596,-16.421706 101.571811,1.516951 11.67941,7.931336 19.10727,16.88021 26.08985,31.432296 l 4.07853,8.499875 6.68273,-9.729885 c 7.84763,-11.42594 12.06751,-14.927048 23.29157,-19.324319 15.37564,-6.023748 30.63558,-5.029229 47.43127,3.091186 12.54627,6.0659 19.35424,15.559057 19.35424,26.987904 0,2.07688 -2.6623,11.812707 -5.91622,21.635167 -7.25097,21.88816 -13.07027,44.89079 -16.49592,65.20536 -3.05533,18.11851 -3.17009,21.71397 -0.83786,26.25001 1.2372,2.40627 1.75,5.74788 1.75,11.40364 0,6.99611 -0.37175,8.67115 -2.96246,13.34835 -7.25593,13.09969 -25.92322,23.064 -43.34013,23.13429 -11.89125,0.048 -25.90943,-5.92204 -33.75154,-14.37402 l -4.05413,-4.36942 -2.51571,1.83257 c -4.80902,3.50313 -19.29719,6.92823 -29.3064,6.92823 -13.850121,0 -22.600331,-3.08258 -30.818141,-10.85681 -2.23558,-2.11491 -4.08032,-3.16214 -4.57062,-2.59468 -0.45216,0.52332 -3.15898,3.94803 -6.01517,7.61047 -18.98189,24.3402 -40.49213,34.61366 -61.66569959,29.45205 z M 17.260409,235.06154 c 5.95127,-2.12562 13.34754,-8.20221 19.98018,-16.41521 11.82833,-14.64667 21.05534,-29.60504 50.55774,-81.96171 1.35734,-2.40882 2.87347,-3.98681 3.47395,-3.61569 1.21786,0.75268 0.52527,21.42075 -1.73885,51.88989 -1.34448,18.09318 -1.3244,19.11932 0.42081,21.5 1.00797,1.375 2.9143,3.05587 4.23628,3.73526 3.07598,1.5808 12.056801,1.57855 18.107271,-0.005 l 4.70366,-1.23071 24.12787,-37 c 24.84506,-38.0998 25.60046,-39.19768 26.41187,-38.38626 0.26422,0.26422 -1.5349,8.50485 -3.99806,18.31252 -8.70955,34.67924 -10.74395,52.33314 -6.92125,60.06054 3.88684,7.85709 12.78391,11.01805 22.8091,8.10365 3.04157,-0.88421 6.86184,-2.72821 8.48949,-4.09778 l 2.95935,-2.49013 -1.89285,-3.71271 c -5.72975,-11.23858 3.01523,-62.18084 18.64742,-108.62701 l 4.32055,-12.837182 -5.48903,-2.51296 c -3.01896,-1.382129 -8.22639,-2.761177 -11.57206,-3.064551 -5.05877,-0.458714 -6.85899,-0.164428 -10.69138,1.747743 -2.53459,1.264634 -5.18163,2.570414 -5.8823,2.901733 -0.70067,0.33132 -13.43737,18.377397 -28.30378,40.102397 -14.86641,21.725 -27.37267,39.62235 -27.7917,39.77188 -0.41903,0.14954 -0.73233,-10.87546 -0.69622,-24.5 0.0438,-16.53892 -0.36533,-26.93159 -1.23119,-31.27143 -5.84686,-29.305501 -19.20623,-44.257621 -43.480521,-48.664417 -35.52547,-6.449354 -79.0801396,15.698869 -99.76829,50.733717 -12.38666,20.97649 -15.67646,49.26698 -6.70877,57.69169 7.70387,7.23741 20.4320004,6.8049 28.4624604,-0.96717 l 3.20805,-3.10483 -2.45804999,-2.92122 c -2.16109001,-2.56832 -2.45804001,-3.88475 -2.45804001,-10.89709 0,-11.23251 2.36828001,-20.73067 8.17186,-32.77385 6.7324596,-13.97072 16.1480696,-23.680891 29.2651296,-30.180647 8.53059,-4.227071 9.27395,-4.408348 19.46615,-4.747056 8.94018,-0.297101 11.48121,-0.0194 16.25355,1.776296 9.42905,3.54789 15.69736,11.824706 18.79415,24.816197 1.82215,7.64417 1.29719,8.33816 -5.75002,7.60158 -11.51391,-1.20344 -13.86514,1.24983 -37.2703,38.88763 -26.67957,42.90338 -39.3434596,56.65297 -52.2479096,56.72721 -3.49201,0.0201 -3.75882,0.21374 -3.13021,2.27196 1.67717,5.49149 3.50566,8.8085 6.96863,12.6416 5.24666,5.80743 12.02486,7.4329 19.6452596,4.71112 z"
       style="fill:#c7332c;fill-opacity:1" />
  </g>
</svg>
