
<svg id="Line_Gradient" data-name="Line Gradient" xmlns="http://www.w3.org/2000/svg" xmlns:xlink="http://www.w3.org/1999/xlink" viewBox="0 0 64 64">
  <defs>
    <style>
      .cls-1 { fill: url(#custom-gradient); }
    </style>
    <linearGradient id="custom-gradient" x1="4.00917" y1="32" x2="59.99083" y2="32" gradientUnits="userSpaceOnUse">
      <stop offset="0" stop-color="#091f40"/> <!-- Navy Blue -->
      <stop offset="0.5" stop-color="#c5203e"/> <!-- Red -->
      <stop offset="1" stop-color="#ffffff"/> <!-- White -->
    </linearGradient>
  </defs>
  <title>Line Gradient</title>
  <path class="cls-1" d="M40.03642,12.29256a2.4037,2.4037,0,0,0-3.38724-.00391L11.60938,37.31779a2.41571,2.41571,0,0,0,0,3.40081L23.27374,52.37327a2.4092,2.4092,0,0,0,3.4013,0l2.66012-2.66109A.99277.99277,0,0,1,30.739,51.1159L28.0788,53.777a4.39571,4.39571,0,0,1-6.20881,0L10.20562,42.12236a4.40528,4.40528,0,0,1-.00291-6.20542L35.24246,10.88786c2.14067-2.095,5.14718-1.48333,6.93251.73281a.9935.9935,0,0,1-1.40371,1.40573ZM32.15483,46.893a.99281.99281,0,0,0,1.40381,1.40369l19.5459-19.54686a4.39068,4.39068,0,0,0,.0048-6.19281l-.72412-.73484a.99281.99281,0,0,0-1.41341,1.3941l.73189.74255a2.39575,2.39575,0,0,1-.00294,3.38724ZM59.64345,14.847a37.51268,37.51268,0,0,1-4.50519,3.325l1.85852,1.85861a7.96827,7.96827,0,0,1-.00088,11.232L30.59015,57.67808a7.952,7.952,0,0,1-11.23151,0L6.32406,44.63322a7.96808,7.96808,0,0,1,.00039-11.231L27.5286,12.19757a.99281.99281,0,0,1,1.4038,1.40371L7.72828,34.806a5.97272,5.97272,0,0,0-.00153,8.42157L20.76288,56.27432a5.9623,5.9623,0,0,0,8.42351,0L55.593,29.8579a5.97443,5.97443,0,0,0,.00007-8.4235l-2.24093-2.24094a17.87487,17.87487,0,0,1-4.91966,1.79094,4.45761,4.45761,0,1,1,.052-2.03978,15.79355,15.79355,0,0,0,3.384-1.23483L42.558,8.39924a5.97023,5.97023,0,0,0-8.42351,0l-2.39255,2.39255a.99278.99278,0,0,1-1.4038-1.40372l2.39259-2.39259a7.96,7.96,0,0,1,11.23006-.001l1.85667,1.85667A36.59861,36.59861,0,0,1,49.1463,4.34405a.99252.99252,0,0,1,1.50264,1.29711,34.14878,34.14878,0,0,0-3.38767,4.65389L53.688,16.7218a35.19058,35.19058,0,0,0,4.66412-3.38324.99284.99284,0,0,1,1.2913,1.50846ZM46.22764,21.17841c-1.05727-.10474-3.36557.035-3.06088-1.58208a.99657.99657,0,0,1,1.235-.66887c1.06972.21927,2.9661.81129,1.47173-.80657a2.48632,2.48632,0,1,0,.35413,3.05752ZM24.32559,32.69353,27.169,30.6829l-.0446-3.48127a1.27261,1.27261,0,0,1,2.03681-1.0344l2.78812,2.07946,3.29708-1.11777a1.27336,1.27336,0,0,1,1.6151,1.61509L35.74372,32.0411l2.0814,2.79006a1.26142,1.26142,0,0,1,.11439,1.33783,1.2864,1.2864,0,0,1-1.1517.697l-3.48128-.0446-2.00917,2.84144a1.27333,1.27333,0,0,1-2.2559-.35772l-1.03294-3.32326L24.6838,34.94846a1.27346,1.27346,0,0,1-.35821-2.25493Zm2.32522.78719,2.30437.71642a1.26972,1.26972,0,0,1,.83711.83567l.71691,2.30631,1.39309-1.96992a1.24945,1.24945,0,0,1,1.05379-.538l2.41537.031-1.4435-1.934a1.27226,1.27226,0,0,1-.18323-1.174l.77265-2.2811-2.285.77458a1.27106,1.27106,0,0,1-1.17012-.18516l-1.93405-1.44254.031,2.412a1.27562,1.27562,0,0,1-.5395,1.0567Z"/>
</svg>
