<?xml version="1.0" encoding="UTF-8"?>
<svg version="1.1" xmlns="http://www.w3.org/2000/svg" width="499" height="499">
<path d="M0 0 C0.66 0 1.32 0 2 0 C4.04949018 5.95335445 6.09391538 11.90841751 8.1340332 17.86499023 C8.82606502 19.88334955 9.51938468 21.90126785 10.21411133 23.91870117 C13.78842226 34.30097761 17.27896628 44.67412258 20.30241394 55.23127747 C22.09988797 61.46743609 24.2434294 67.54277919 26.5 73.625 C27.29430123 75.79769041 28.08727949 77.97086496 28.87890625 80.14453125 C29.25031738 81.16369629 29.62172852 82.18286133 30.00439453 83.23291016 C31.20733079 86.57623521 32.33510719 89.93470566 33.4375 93.3125 C36.23262417 101.8542431 39.30071232 110.29848061 42.34741211 118.75317383 C50 140.03726079 50 140.03726079 50 143 C50.5837376 143.02020801 51.1674752 143.04041601 51.76890182 143.06123638 C66.09523615 143.57512851 80.31298839 144.52579491 94.578125 145.92578125 C96.56886731 146.11698306 98.55965218 146.30774219 100.55047607 146.49809265 C104.69189662 146.89532791 108.83290754 147.29651057 112.97363281 147.70092773 C118.16596856 148.20793028 123.35902945 148.70696952 128.55239105 149.20334053 C153.06599626 151.54857644 177.54745871 154.0837799 202 157 C202 157.99 202 158.98 202 160 C199.93614303 161.77078311 197.9079493 163.32113192 195.6875 164.875 C195.02830566 165.34752197 194.36911133 165.82004395 193.68994141 166.30688477 C187.34092842 170.83002339 180.89748119 175.22255675 174.4362793 179.58349609 C170.48912745 182.25371377 166.70289156 184.99529675 163 188 C160.45584411 189.80787164 157.88863136 191.57778119 155.31518555 193.34350586 C154.7406665 193.73803955 154.16614746 194.13257324 153.57421875 194.5390625 C152.98946777 194.9402832 152.4047168 195.34150391 151.80224609 195.75488281 C149.97049134 197.02038664 148.15008261 198.30083851 146.33203125 199.5859375 C145.74228516 200.00077393 145.15253906 200.41561035 144.54492188 200.84301758 C142.88887026 202.00874162 141.23538709 203.17811191 139.58203125 204.34765625 C137 206 137 206 135 206 C135 206.66 135 207.32 135 208 C132.6640625 209.7265625 132.6640625 209.7265625 129.625 211.625 C128.62726563 212.25664062 127.62953125 212.88828125 126.6015625 213.5390625 C124 215 124 215 122 215 C122 215.66 122 216.32 122 217 C120.18676758 218.35351562 120.18676758 218.35351562 117.64453125 219.90625 C116.71761475 220.48076904 115.79069824 221.05528809 114.83569336 221.6472168 C113.83803955 222.25863525 112.84038574 222.87005371 111.8125 223.5 C104.06529616 228.32497472 96.65866298 233.27964115 89.55859375 239.01171875 C87.12979858 240.89913363 84.67003052 242.47909654 82 244 C83.28821972 251.44327429 85.30645177 258.46424315 87.6875 265.625 C90.46609466 274.12720857 93.10483823 282.64958499 95.5625 291.25 C97.94568675 299.55749279 100.53050835 307.76428966 103.31152344 315.9465332 C105.6097295 322.73893836 107.73110813 329.57584825 109.8125 336.4375 C113.20932753 347.61823277 116.84935798 358.70492911 120.5871582 369.77514648 C127 388.79694337 127 388.79694337 127 393 C122.88682568 391.56900493 119.78556175 389.54821899 116.3125 386.9375 C112.79692983 384.24079956 112.79692983 384.24079956 109 382 C109 381.34 109 380.68 109 380 C107.98873047 379.64421875 107.98873047 379.64421875 106.95703125 379.28125 C103.28390001 377.68972154 100.04545248 375.66485917 96.6875 373.5 C96.04232422 373.09652344 95.39714844 372.69304687 94.73242188 372.27734375 C93.11718738 371.24154258 91.55327117 370.12659452 90 369 C90 368.34 90 367.68 90 367 C89.29230469 366.75378906 88.58460938 366.50757813 87.85546875 366.25390625 C84.63339299 364.83901388 82.12310522 363.0502469 79.3125 360.9375 C75.79692983 358.24079956 75.79692983 358.24079956 72 356 C72 355.34 72 354.68 72 354 C71.33355469 353.77957031 70.66710937 353.55914062 69.98046875 353.33203125 C66.05437687 351.57738206 62.78889866 349.19932326 59.3125 346.6875 C58.57427002 346.1605957 57.83604004 345.63369141 57.07543945 345.09082031 C53.13970146 342.27655827 49.22179641 339.43776465 45.3046875 336.59765625 C44.15528687 335.76451904 44.15528687 335.76451904 42.98266602 334.91455078 C41.46142977 333.81128637 39.94107325 332.70680786 38.42163086 331.60107422 C33.05491121 327.71166677 27.59407733 324.03310856 21.9921875 320.48828125 C21.33476562 319.99714844 20.67734375 319.50601562 20 319 C20 318.34 20 317.68 20 317 C19.28457031 316.7421875 18.56914062 316.484375 17.83203125 316.21875 C14.82839889 314.92615235 12.36494628 313.3722291 9.6875 311.5 C8.80449219 310.8915625 7.92148437 310.283125 7.01171875 309.65625 C6.34785156 309.1096875 5.68398437 308.563125 5 308 C5 307.34 5 306.68 5 306 C2.6984589 305.22197813 2.6984589 305.22197813 0 305 C-2.19038423 306.37168238 -2.19038423 306.37168238 -4 308 C-4.66 308 -5.32 308 -6 308 C-6 308.66 -6 309.32 -6 310 C-7.43701172 311.23681641 -7.43701172 311.23681641 -9.4296875 312.6015625 C-10.14253906 313.09140625 -10.85539063 313.58125 -11.58984375 314.0859375 C-12.34394531 314.59382813 -13.09804687 315.10171875 -13.875 315.625 C-14.62136719 316.140625 -15.36773437 316.65625 -16.13671875 317.1875 C-21.734437 321 -21.734437 321 -24 321 C-24 321.66 -24 322.32 -24 323 C-26.42522946 324.81440864 -28.85463383 326.5145491 -31.375 328.1875 C-32.85302163 329.18596548 -34.33088653 330.18466301 -35.80859375 331.18359375 C-36.53030762 331.66812012 -37.25202148 332.15264648 -37.99560547 332.65185547 C-43.5886736 336.41372176 -49.093475 340.24805504 -54.375 344.4375 C-58.72920945 347.87180604 -63.29977113 350.90344171 -67.93359375 353.9453125 C-71.88625534 356.59384753 -75.70981816 359.39960837 -79.52734375 362.23828125 C-86.21064302 367 -86.21064302 367 -89 367 C-89 367.66 -89 368.32 -89 369 C-91.24198309 370.5245485 -93.48453265 371.92939268 -95.8125 373.3125 C-103.3491114 377.88082213 -110.60445217 382.78265251 -117.7902832 387.8840332 C-118.55687256 388.41988037 -119.32346191 388.95572754 -120.11328125 389.5078125 C-120.79173096 389.98879395 -121.47018066 390.46977539 -122.16918945 390.96533203 C-124 392 -124 392 -127 392 C-124.957948 384.32014976 -122.73191763 376.71368552 -120.375 369.125 C-120.024375 367.99263916 -119.67375 366.86027832 -119.3125 365.69360352 C-118.57320213 363.30645132 -117.83328514 360.91949078 -117.09277344 358.53271484 C-116.0674455 355.21803762 -115.05161951 351.90062823 -114.0390625 348.58203125 C-109.20811298 332.80666098 -104.13031128 317.11767153 -99 301.4375 C-98.47853394 299.84269302 -98.47853394 299.84269302 -97.9465332 298.21566772 C-94.86076589 288.77878277 -91.77406563 279.34223333 -88.66430664 269.91322327 C-87.99887908 267.89228485 -87.33655377 265.87036507 -86.67578125 263.84790039 C-85.91873232 261.53132438 -85.15614422 259.21654748 -84.38671875 256.90405273 C-84.06316406 255.90962158 -83.73960937 254.91519043 -83.40625 253.890625 C-83.13103516 253.05563477 -82.85582031 252.22064453 -82.57226562 251.36035156 C-81.95831439 248.82806466 -81.89602414 246.59593074 -82 244 C-82.66 243.67 -83.32 243.34 -84 243 C-84 242.34 -84 241.68 -84 241 C-84.65742188 240.78730469 -85.31484375 240.57460938 -85.9921875 240.35546875 C-90.08993565 238.50882121 -93.50065618 235.94966534 -97.125 233.3125 C-101.82633894 229.93775432 -106.50726813 226.59884809 -111.4375 223.5625 C-122.93143737 216.39405044 -133.67381003 207.98247236 -144.58349609 199.96508789 C-148.82984165 196.84801663 -153.09260471 193.75487126 -157.375 190.6875 C-157.95169434 190.27411377 -158.52838867 189.86072754 -159.12255859 189.43481445 C-163.17657338 186.54569932 -167.30314249 183.7958527 -171.5234375 181.15625 C-172.25433594 180.58390625 -172.25433594 180.58390625 -173 180 C-173 179.34 -173 178.68 -173 178 C-173.65226562 177.78988281 -174.30453125 177.57976562 -174.9765625 177.36328125 C-179.15734894 175.47814628 -182.66796831 172.86732098 -186.375 170.1875 C-187.46941406 169.40536133 -187.46941406 169.40536133 -188.5859375 168.60742188 C-190.02985841 167.57476058 -191.47100758 166.53821125 -192.90917969 165.49755859 C-194.29439313 164.5053938 -195.69092368 163.52882799 -197.09863281 162.56884766 C-198.76541779 161.42592137 -200.38780342 160.21871852 -202 159 C-202 158.34 -202 157.68 -202 157 C-197.57162497 156.53635908 -193.14323764 156.07283574 -188.71484375 155.609375 C-188.03021812 155.53772125 -187.3455925 155.4660675 -186.64022064 155.39224243 C-178.30106552 154.51952439 -169.96180179 153.64785841 -161.62231445 152.77832031 C-160.85507144 152.69831661 -160.08782843 152.61831291 -159.29733562 152.53588486 C-156.21287353 152.2142663 -153.12841044 151.89265736 -150.04393578 151.57115936 C-141.96755779 150.72926911 -133.89146741 149.88493462 -125.81672668 149.02745056 C-107.33215732 147.06519511 -88.84863758 145.33924842 -70.3112793 143.95019531 C-68.81428446 143.83796938 -67.3172953 143.72566769 -65.8203125 143.61328125 C-65.11983292 143.5607016 -64.41935333 143.50812195 -63.69764709 143.45394897 C-58.78228629 143.07783987 -53.89317355 142.59632069 -49 142 C-48.75636719 140.75863281 -48.51273438 139.51726562 -48.26171875 138.23828125 C-46.9535917 132.36489399 -44.90101329 126.82137489 -42.8125 121.1875 C-41.99931387 118.961188 -41.18682231 116.73462218 -40.375 114.5078125 C-39.9728125 113.40856445 -39.570625 112.30931641 -39.15625 111.17675781 C-37.50867894 106.65011199 -35.90246806 102.10965504 -34.3125 97.5625 C-34.03220947 96.76199219 -33.75191895 95.96148437 -33.46313477 95.13671875 C-31.24884248 88.78091578 -29.11421153 82.39933299 -27.0402832 75.99633789 C-25.99058967 72.79230739 -24.87787802 69.71722557 -23.5390625 66.6171875 C-21.63123059 62.13329829 -20.13473749 57.56781273 -18.625 52.9375 C-15.12476854 42.32894814 -11.55782764 31.7441197 -7.95159912 21.1711731 C-7.35836245 19.43057917 -6.76628245 17.68959059 -6.175354 15.94821167 C-5.33983015 13.48661905 -4.50050718 11.02635448 -3.66015625 8.56640625 C-3.40632675 7.81646393 -3.15249725 7.06652161 -2.89097595 6.29385376 C-1.1142933 1.1142933 -1.1142933 1.1142933 0 0 Z M0 65 C-0.71062285 67.03035101 -1.42124046 69.06070386 -2.13183594 71.09106445 C-2.76391081 72.89692159 -3.39607539 74.70274732 -4.02832031 76.50854492 C-5.56647285 80.90212989 -7.10382557 85.29598328 -8.63671875 89.69140625 C-10.4179552 94.79656684 -12.20740279 99.89881825 -14 105 C-14.4129834 106.17594727 -14.8259668 107.35189453 -15.25146484 108.56347656 C-16.64300211 112.52283135 -18.03905473 116.48058022 -19.4375 120.4375 C-19.67261292 121.10317993 -19.90772583 121.76885986 -20.14996338 122.45471191 C-23.48725829 131.89072605 -26.92821939 141.28012635 -30.62670898 150.58178711 C-32.25009662 154.72474882 -33.47245139 158.54435292 -34 163 C-34.65479843 162.98445572 -35.30959686 162.96891144 -35.98423767 162.95289612 C-43.09849985 162.85864954 -49.95315363 163.44050976 -57.00390625 164.33984375 C-66.14853424 165.44981075 -75.29287615 166.46000144 -84.46484375 167.31640625 C-86.12986435 167.47198502 -86.12986435 167.47198502 -87.82852173 167.63070679 C-91.19798905 167.94342652 -94.56771432 168.25323132 -97.9375 168.5625 C-102.4467625 168.97888351 -106.95586056 169.39700923 -111.46484375 169.81640625 C-112.5358432 169.91587555 -113.60684265 170.01534485 -114.71029663 170.11782837 C-124.14868743 171.00072803 -133.575891 171.97670552 -143 173 C-142.24009766 173.60223389 -141.48019531 174.20446777 -140.69726562 174.82495117 C-138.69144527 176.44242525 -136.75992882 178.08249573 -134.84375 179.80078125 C-130.34500438 183.67402634 -125.43124994 186.8961605 -120.5 190.1875 C-113.08313584 195.17884745 -105.75907996 200.24327103 -98.65625 205.67456055 C-95.55799431 208.00964296 -92.68431701 209.75817248 -89 211 C-89 211.66 -89 212.32 -89 213 C-86.92941311 214.55042006 -86.92941311 214.55042006 -84.25 216.125 C-79.06385128 219.33801244 -73.9297618 222.60061321 -68.88671875 226.03515625 C-67.01717981 227.30765705 -65.12463845 228.547254 -63.20703125 229.74609375 C-62.37558594 230.30425781 -61.54414063 230.86242187 -60.6875 231.4375 C-59.57955078 232.14712891 -59.57955078 232.14712891 -58.44921875 232.87109375 C-56.38539309 235.9028592 -56.93870775 238.02827439 -57.49975586 241.56176758 C-58.30293567 245.47653416 -59.30101294 249.2942779 -60.4375 253.125 C-60.69700439 254.01550049 -60.95650879 254.90600098 -61.22387695 255.82348633 C-65.65927699 270.83590207 -70.62654535 285.69140111 -75.49462891 300.56787109 C-76.75580849 304.42220385 -78.01316051 308.27777064 -79.26870728 312.13394165 C-79.98263503 314.32178477 -80.701518 316.50795625 -81.4206543 318.6940918 C-83.61725405 325.41280891 -85.64512115 332.05624587 -87 339 C-83.32247533 336.68344903 -79.65846838 334.34652665 -76 332 C-75.43941895 331.64212402 -74.87883789 331.28424805 -74.30126953 330.91552734 C-72.63343894 329.8471406 -70.97287604 328.76743543 -69.3125 327.6875 C-68.29800781 327.03136719 -67.28351563 326.37523437 -66.23828125 325.69921875 C-65.49964844 325.13847656 -64.76101562 324.57773437 -64 324 C-64 323.34 -64 322.68 -64 322 C-63.45859375 321.7421875 -62.9171875 321.484375 -62.359375 321.21875 C-59.56507559 319.77533706 -56.91780654 318.16561466 -54.25 316.5 C-53.26515625 315.8915625 -52.2803125 315.283125 -51.265625 314.65625 C-50.51796875 314.1096875 -49.7703125 313.563125 -49 313 C-49 312.34 -49 311.68 -49 311 C-48.32195312 310.77699219 -47.64390625 310.55398438 -46.9453125 310.32421875 C-43.17134467 308.62743481 -40.15387671 306.31123019 -36.875 303.8125 C-32.46785207 300.51008429 -28.07114834 297.32425001 -23.375 294.4375 C-16.09916796 289.93237461 -9.4209134 284.57551066 -2.7734375 279.19921875 C-1 278 -1 278 1.4375 278.0625 C4.50865255 279.1860924 6.50760382 280.91177617 9 283 C9.66 283 10.32 283 11 283 C11 283.66 11 284.32 11 285 C15.00150768 288.69551003 19.83942229 291.57457764 24.375 294.5625 C36.13338974 302.33749547 47.41270334 310.81674837 58.75 319.1875 C64.39961996 323.35697821 70.05231781 327.52133076 75.75 331.625 C76.79671875 332.38039063 77.8434375 333.13578125 78.921875 333.9140625 C82.2024133 336.1371684 85.5369083 338.07702697 89 340 C86.71147551 329.58312691 83.33661385 319.54533687 79.99038696 309.43157959 C78.30067212 304.3233331 76.62488114 299.2105265 74.94921875 294.09765625 C74.61339279 293.07365723 74.27756683 292.0496582 73.93156433 290.99462891 C70.35953125 280.08147332 66.9145658 269.12964577 63.50195312 258.16577148 C61.08726277 250.41389885 58.60405558 242.69056608 56 235 C56.6086792 234.70287109 57.2173584 234.40574219 57.84448242 234.09960938 C60.48136354 232.75443863 62.85859695 231.15629971 65.3125 229.5 C66.35921875 228.79617188 67.4059375 228.09234375 68.484375 227.3671875 C69.04705078 226.98788086 69.60972656 226.60857422 70.18945312 226.21777344 C73.47312041 224.00917953 76.76871153 221.81845738 80.0625 219.625 C81.32426739 218.78392714 82.5859891 217.94278574 83.84765625 217.1015625 C85.8984375 215.734375 87.94921875 214.3671875 90 213 C90 212.34 90 211.68 90 211 C90.65871094 210.78859375 91.31742188 210.5771875 91.99609375 210.359375 C96.09420112 208.50483486 99.46192546 205.92490327 103.0625 203.25 C104.66690193 202.07276344 106.27241299 200.8970373 107.87890625 199.72265625 C108.71437988 199.11180176 109.54985352 198.50094727 110.41064453 197.87158203 C114.73100748 194.74883054 119.11887562 191.72407384 123.5 188.6875 C133.57792591 181.76837277 133.57792591 181.76837277 143 174 C143 173.67 143 173.34 143 173 C141.75355713 172.87995605 140.50711426 172.75991211 139.22290039 172.63623047 C104.4606962 169.28254263 69.72663041 165.70271878 35 162 C34.77696701 161.38559555 34.55393402 160.7711911 34.32414246 160.13816833 C33.29327717 157.29901288 32.26187552 154.46005254 31.23046875 151.62109375 C30.87980347 150.65506226 30.52913818 149.68903076 30.16784668 148.69372559 C27.63439709 141.72198807 25.06983648 134.76242684 22.47193909 127.81445312 C20.04618389 121.31146564 17.88224019 114.72110967 15.7048645 108.13192749 C13.6795352 102.00613282 11.64125245 95.88461488 9.60571289 89.76220703 C9.07101276 88.15300487 8.53684437 86.54362594 8.00317383 84.93408203 C7.21837513 82.56756092 6.43164059 80.20169094 5.64453125 77.8359375 C5.40805374 77.12134369 5.17157623 76.40674988 4.92793274 75.67050171 C3.72604554 72.06443476 2.45780683 68.51084569 1 65 C0.67 65 0.34 65 0 65 Z " fill="#262C63" transform="translate(249,43)"/>
<path d="M0 0 C0.66 0 1.32 0 2 0 C2 0.99 2 1.98 2 3 C2.66 3 3.32 3 4 3 C5.62253041 7.67150801 7.23964602 12.34484697 8.85229492 17.01977539 C9.39875088 18.6016384 9.94654902 20.18303855 10.49584961 21.76391602 C13.62989504 30.78686441 16.586304 39.82138129 19.22587585 49.00166321 C21.05379135 55.30948098 23.21569261 61.46801915 25.5 67.625 C26.29430123 69.79769041 27.08727949 71.97086496 27.87890625 74.14453125 C28.25031738 75.16369629 28.62172852 76.18286133 29.00439453 77.23291016 C30.20733079 80.57623521 31.33510719 83.93470566 32.4375 87.3125 C35.23262417 95.8542431 38.30071232 104.29848061 41.34741211 112.75317383 C49 134.03726079 49 134.03726079 49 137 C49.5837376 137.02020801 50.1674752 137.04041601 50.76890182 137.06123638 C65.09523615 137.57512851 79.31298839 138.52579491 93.578125 139.92578125 C95.56886731 140.11698306 97.55965218 140.30774219 99.55047607 140.49809265 C103.69189662 140.89532791 107.83290754 141.29651057 111.97363281 141.70092773 C117.16596856 142.20793028 122.35902945 142.70696952 127.55239105 143.20334053 C152.06599626 145.54857644 176.54745871 148.0837799 201 151 C201 151.99 201 152.98 201 154 C198.93614303 155.77078311 196.9079493 157.32113192 194.6875 158.875 C194.02830566 159.34752197 193.36911133 159.82004395 192.68994141 160.30688477 C186.34092842 164.83002339 179.89748119 169.22255675 173.4362793 173.58349609 C169.48912745 176.25371377 165.70289156 178.99529675 162 182 C159.45584411 183.80787164 156.88863136 185.57778119 154.31518555 187.34350586 C153.7406665 187.73803955 153.16614746 188.13257324 152.57421875 188.5390625 C151.98946777 188.9402832 151.4047168 189.34150391 150.80224609 189.75488281 C148.97049134 191.02038664 147.15008261 192.30083851 145.33203125 193.5859375 C144.74228516 194.00077393 144.15253906 194.41561035 143.54492188 194.84301758 C141.88887026 196.00874162 140.23538709 197.17811191 138.58203125 198.34765625 C136 200 136 200 134 200 C134 200.66 134 201.32 134 202 C131.6640625 203.7265625 131.6640625 203.7265625 128.625 205.625 C127.62726563 206.25664062 126.62953125 206.88828125 125.6015625 207.5390625 C123 209 123 209 121 209 C121 209.66 121 210.32 121 211 C119.18676758 212.35351562 119.18676758 212.35351562 116.64453125 213.90625 C115.71761475 214.48076904 114.79069824 215.05528809 113.83569336 215.6472168 C112.33921265 216.56434448 112.33921265 216.56434448 110.8125 217.5 C103.06529616 222.32497472 95.65866298 227.27964115 88.55859375 233.01171875 C86.12979858 234.89913363 83.67003052 236.47909654 81 238 C82.28821972 245.44327429 84.30645177 252.46424315 86.6875 259.625 C89.46609466 268.12720857 92.10483823 276.64958499 94.5625 285.25 C96.94568675 293.55749279 99.53050835 301.76428966 102.31152344 309.9465332 C104.6097295 316.73893836 106.73110813 323.57584825 108.8125 330.4375 C112.20932753 341.61823277 115.84935798 352.70492911 119.5871582 363.77514648 C126 382.79694337 126 382.79694337 126 387 C121.88682568 385.56900493 118.78556175 383.54821899 115.3125 380.9375 C111.79692983 378.24079956 111.79692983 378.24079956 108 376 C108 375.34 108 374.68 108 374 C106.98873047 373.64421875 106.98873047 373.64421875 105.95703125 373.28125 C102.28390001 371.68972154 99.04545248 369.66485917 95.6875 367.5 C95.04232422 367.09652344 94.39714844 366.69304687 93.73242188 366.27734375 C92.11718738 365.24154258 90.55327117 364.12659452 89 363 C89 362.34 89 361.68 89 361 C87.93845703 360.63068359 87.93845703 360.63068359 86.85546875 360.25390625 C83.63339299 358.83901388 81.12310522 357.0502469 78.3125 354.9375 C74.79692983 352.24079956 74.79692983 352.24079956 71 350 C71 349.34 71 348.68 71 348 C70.33355469 347.77957031 69.66710937 347.55914062 68.98046875 347.33203125 C65.05437687 345.57738206 61.78889866 343.19932326 58.3125 340.6875 C57.57427002 340.1605957 56.83604004 339.63369141 56.07543945 339.09082031 C52.13970146 336.27655827 48.22179641 333.43776465 44.3046875 330.59765625 C43.15528687 329.76451904 43.15528687 329.76451904 41.98266602 328.91455078 C40.46142977 327.81128637 38.94107325 326.70680786 37.42163086 325.60107422 C32.05491121 321.71166677 26.59407733 318.03310856 20.9921875 314.48828125 C20.33476562 313.99714844 19.67734375 313.50601562 19 313 C19 312.34 19 311.68 19 311 C18.28457031 310.7421875 17.56914062 310.484375 16.83203125 310.21875 C13.82839889 308.92615235 11.36494628 307.3722291 8.6875 305.5 C7.80449219 304.8915625 6.92148437 304.283125 6.01171875 303.65625 C5.34785156 303.1096875 4.68398437 302.563125 4 302 C4 301.34 4 300.68 4 300 C2.35 299.34 0.7 298.68 -1 298 C-0.505 285.13 -0.505 285.13 0 272 C-0.66 271.67 -1.32 271.34 -2 271 C2.84590538 271.44053685 6.48141867 273.74505877 10 277 C10 277.66 10 278.32 10 279 C10.680625 279.20625 11.36125 279.4125 12.0625 279.625 C14.66628204 280.84379159 16.04598374 281.80887085 18.125 283.6875 C20.85820406 286.12412235 23.62655747 288.09015511 26.75 290 C34.66877258 294.91808858 42.03185612 300.60152404 49.50830078 306.15820312 C53.48247313 309.09580417 57.48954766 311.98721955 61.5 314.875 C62.98438013 315.9440033 64.4687553 317.01301347 65.953125 318.08203125 C66.64341797 318.57912598 67.33371094 319.0762207 68.04492188 319.58837891 C71.58919177 322.14744091 75.11592247 324.73047253 78.640625 327.31640625 C81.38583692 329.27532403 84.18599724 331.14161957 87 333 C83.34719628 319.35004926 79.04934956 305.960727 74.53775024 292.57662964 C70.04384594 279.23826631 65.74925372 265.84645272 61.56567383 252.40771484 C61.34938828 251.71321228 61.13310272 251.01870972 60.91026306 250.30316162 C60.49572826 248.97122159 60.08185429 247.63907566 59.66871643 246.30670166 C58.56244974 242.75125167 57.40449705 239.21951901 56.19140625 235.69921875 C55 232 55 232 55 229 C57.2109375 227.16015625 57.2109375 227.16015625 60.375 225.0625 C60.94138184 224.68351563 61.50776367 224.30453125 62.09130859 223.9140625 C63.35294461 223.07140137 64.61762398 222.23328497 65.88476562 221.39892578 C68.18960387 219.87460409 70.47815024 218.3275902 72.765625 216.77734375 C74.38506551 215.68437535 76.00485421 214.59192267 77.625 213.5 C78.79748291 212.70734741 78.79748291 212.70734741 79.99365234 211.89868164 C80.7305127 211.4061792 81.46737305 210.91367676 82.2265625 210.40625 C82.88221191 209.96603516 83.53786133 209.52582031 84.21337891 209.07226562 C86 208 86 208 89 207 C89 206.34 89 205.68 89 205 C90.45849609 203.78588867 90.45849609 203.78588867 92.5234375 202.41796875 C93.28857666 201.90443848 94.05371582 201.3909082 94.84204102 200.86181641 C95.67791748 200.30929199 96.51379395 199.75676758 97.375 199.1875 C99.12244921 198.01373419 100.86850899 196.8378976 102.61328125 195.66015625 C103.50869629 195.05574707 104.40411133 194.45133789 105.32666016 193.82861328 C109.45945851 191.00170372 113.51425636 188.07121458 117.5625 185.125 C122.98806019 181.17892565 128.42608539 177.2629614 133.95703125 173.46484375 C136.37734561 171.7294367 138.67983925 169.86649136 141 168 C131.47864381 167.00801633 121.95721611 166.01672238 112.43570518 165.02622509 C108.01081471 164.56589548 103.58594599 164.1053592 99.16113281 163.64428711 C77.44540041 161.3816467 55.72737972 159.14826349 34 157 C33.36074411 155.57032065 32.72241488 154.14022694 32.08447266 152.70996094 C31.72890289 151.91362244 31.37333313 151.11728394 31.00698853 150.29681396 C20.90961752 127.26598278 13.82476294 102.63012991 5.93505859 78.76855469 C5.68762909 78.02196594 5.44019958 77.2753772 5.18527222 76.50616455 C4.7224593 75.10942715 4.260884 73.71227878 3.80081177 72.31463623 C2.93888026 69.71537468 2.07816667 67.17140733 0.94107056 64.67793274 C-0.1600516 61.54455335 -0.24056921 59.05974049 -0.22705078 55.7409668 C-0.22689972 54.50005783 -0.22674866 53.25914886 -0.22659302 51.9806366 C-0.21638143 50.63682899 -0.20594946 49.29302305 -0.1953125 47.94921875 C-0.19157931 46.5663117 -0.18873378 45.18340198 -0.18673706 43.80049133 C-0.17912462 40.1721966 -0.15949691 36.54406363 -0.1373291 32.91583252 C-0.11681899 29.20888456 -0.10772433 25.5019103 -0.09765625 21.79492188 C-0.07624855 14.52987441 -0.04214175 7.26495993 0 0 Z " fill="#D42221" transform="translate(250,49)"/>
<path d="M0 0 C3 1 3 1 4.2109375 3.046875 C4.59507812 3.93890625 4.97921875 4.8309375 5.375 5.75 C5.80554688 6.74644531 6.23609375 7.74289063 6.6796875 8.76953125 C8.43524872 13.06494287 10.10444278 17.3889002 11.7421875 21.73046875 C12.9743144 24.9332334 14.28445366 28.0912875 15.625 31.25 C18.38139198 37.81365841 20.54708422 44.45848593 22.5859375 51.2734375 C22.85196777 52.16208496 23.11799805 53.05073242 23.39208984 53.96630859 C23.5927002 54.63742676 23.79331055 55.30854492 24 56 C24.86443726 56.06731323 24.86443726 56.06731323 25.74633789 56.13598633 C37.67770776 57.08056781 49.53088334 58.26281361 61.38916016 59.88720703 C71.56232425 61.25798443 81.77118324 62.15929601 92 63 C92 63.99 92 64.98 92 66 C90.02 66.99 90.02 66.99 88 68 C88 68.66 88 69.32 88 70 C86.15625 71.3046875 86.15625 71.3046875 83.5 72.875 C78.55834541 75.92477915 73.92837906 79.22898494 69.3125 82.75 C63.79451927 86.944697 58.21490188 91.0146218 52.5 94.9375 C51.86618408 95.37352539 51.23236816 95.80955078 50.5793457 96.25878906 C46.1271036 99.29432901 41.58744116 102.17353946 37 105 C38.39423572 111.87259628 40.3498288 118.37187318 42.625 125 C43.33983137 127.11284535 44.05332832 129.22614254 44.765625 131.33984375 C45.13236328 132.42765137 45.49910156 133.51545898 45.87695312 134.63623047 C47.75572036 140.26354676 49.56868277 145.91158268 51.375 151.5625 C51.70838379 152.60212891 52.04176758 153.64175781 52.38525391 154.71289062 C54.00520575 159.78824051 55.57443893 164.86654019 57 170 C53.06946815 169.43450607 50.46592463 168.28617442 47.1875 166.0625 C46.39730469 165.53785156 45.60710937 165.01320313 44.79296875 164.47265625 C44.20128906 163.98667969 43.60960937 163.50070312 43 163 C43 162.34 43 161.68 43 161 C42.26934326 160.73646729 41.53868652 160.47293457 40.78588867 160.20141602 C37.98049586 158.99158883 35.86138386 157.61007186 33.42578125 155.77734375 C32.59369141 155.15666016 31.76160156 154.53597656 30.90429688 153.89648438 C30.04900391 153.25001953 29.19371094 152.60355469 28.3125 151.9375 C26.60119404 150.65370245 24.88899817 149.37109002 23.17578125 148.08984375 C22.42208252 147.52128662 21.66838379 146.95272949 20.8918457 146.36694336 C19.04585799 144.95570353 19.04585799 144.95570353 17 144 C17 143.34 17 142.68 17 142 C16.45859375 141.75507813 15.9171875 141.51015625 15.359375 141.2578125 C12.44938857 139.70646212 9.9025804 137.83285696 7.25 135.875 C5.77273437 134.78832031 5.77273437 134.78832031 4.265625 133.6796875 C3.14414063 132.84824219 3.14414063 132.84824219 2 132 C1.01257813 132.721875 0.02515625 133.44375 -0.9921875 134.1875 C-2.28627903 135.12524749 -3.58055969 136.06273402 -4.875 137 C-5.52597656 137.47695313 -6.17695313 137.95390625 -6.84765625 138.4453125 C-11.7734375 142 -11.7734375 142 -14 142 C-14 142.66 -14 143.32 -14 144 C-15.44946289 145.24926758 -15.44946289 145.24926758 -17.47265625 146.64453125 C-18.20806641 147.15693359 -18.94347656 147.66933594 -19.70117188 148.19726562 C-20.48041016 148.73029297 -21.25964844 149.26332031 -22.0625 149.8125 C-23.57431593 150.86053692 -25.08603569 151.90871257 -26.59765625 152.95703125 C-27.3364502 153.46443848 -28.07524414 153.9718457 -28.83642578 154.49462891 C-30.89433066 155.92647741 -32.91417623 157.40134475 -34.93359375 158.88671875 C-38 161 -38 161 -40 161 C-40 161.66 -40 162.32 -40 163 C-42.08203125 164.7265625 -42.08203125 164.7265625 -44.8125 166.625 C-45.70582031 167.25664062 -46.59914062 167.88828125 -47.51953125 168.5390625 C-50 170 -50 170 -53 170 C-51.63866924 161.78866097 -49.29401833 153.9090088 -46.85131836 145.97045898 C-46.19453305 143.83536323 -45.54489186 141.69819995 -44.89648438 139.56054688 C-43.19279944 133.9697442 -41.48599127 128.38427266 -39.59619141 122.85302734 C-39.36853592 122.18550949 -39.14088043 121.51799164 -38.90632629 120.83024597 C-38.28037577 119.00918331 -37.64503926 117.19135449 -37.0090332 115.3737793 C-35.96474798 111.88213219 -35.27575007 108.63518963 -35 105 C-38.12261714 101.46103391 -42.5284159 99.58566067 -46.6484375 97.3671875 C-49.75441432 95.56138702 -52.54690412 93.44808324 -55.37109375 91.234375 C-56.99235951 89.9272484 -56.99235951 89.9272484 -59 89 C-59 88.34 -59 87.68 -59 87 C-59.58249512 86.72309326 -60.16499023 86.44618652 -60.76513672 86.16088867 C-62.90780271 85.04789142 -64.79411251 83.82658752 -66.7578125 82.42578125 C-67.46172119 81.9261084 -68.16562988 81.42643555 -68.89086914 80.91162109 C-69.62813232 80.38391113 -70.36539551 79.85620117 -71.125 79.3125 C-72.64688111 78.22750779 -74.16901571 77.14287104 -75.69140625 76.05859375 C-76.42762207 75.53378418 -77.16383789 75.00897461 -77.92236328 74.46826172 C-79.71621909 73.2005474 -81.52072511 71.95368556 -83.33984375 70.72265625 C-84.68755859 69.80806641 -84.68755859 69.80806641 -86.0625 68.875 C-86.83722656 68.35679687 -87.61195313 67.83859375 -88.41015625 67.3046875 C-88.93480469 66.87414062 -89.45945313 66.44359375 -90 66 C-90 65.34 -90 64.68 -90 64 C-80.42151566 62.01924372 -70.77838254 61.0119314 -61.0625 60 C-59.4092297 59.82484011 -57.75599087 59.64938291 -56.1027832 59.47363281 C-44.73992256 58.2696378 -33.37359096 57.09833915 -22 56 C-21.69296143 55.1843457 -21.38592285 54.36869141 -21.06958008 53.52832031 C-19.9063635 50.44126366 -18.74125709 47.35493313 -17.57495117 44.26904297 C-17.07486813 42.94477568 -16.57549448 41.62024023 -16.0769043 40.29541016 C-13.20647428 32.66983676 -10.24986977 25.09464713 -7.08276367 17.5859375 C-5.73703129 14.37195838 -4.48305015 11.1337754 -3.25 7.875 C-1.0990099 2.1980198 -1.0990099 2.1980198 0 0 Z " fill="#232962" transform="translate(248,166)"/>
<path d="M0 0 C2.85199505 3.60077949 4.36267607 7.26261701 5.875 11.5625 C7.62116143 16.38813639 9.42841863 21.10599309 11.625 25.75 C13.81509842 30.41707874 15.45203224 35.15136216 17.01953125 40.05859375 C18.2646697 43.79400909 19.73927067 47.41103567 21.265625 51.0390625 C22 53 22 53 22 55 C22.5762915 55.04487549 23.15258301 55.08975098 23.74633789 55.13598633 C35.67770776 56.08056781 47.53088334 57.26281361 59.38916016 58.88720703 C69.56232425 60.25798443 79.77118324 61.15929601 90 62 C90 62.99 90 63.98 90 65 C88.02 65.99 88.02 65.99 86 67 C86 67.66 86 68.32 86 69 C84.15625 70.3046875 84.15625 70.3046875 81.5 71.875 C76.55834541 74.92477915 71.92837906 78.22898494 67.3125 81.75 C61.79451927 85.944697 56.21490188 90.0146218 50.5 93.9375 C49.86618408 94.37352539 49.23236816 94.80955078 48.5793457 95.25878906 C44.1271036 98.29432901 39.58744116 101.17353946 35 104 C36.39423572 110.87259628 38.3498288 117.37187318 40.625 124 C41.33983137 126.11284535 42.05332832 128.22614254 42.765625 130.33984375 C43.13236328 131.42765137 43.49910156 132.51545898 43.87695312 133.63623047 C45.75572036 139.26354676 47.56868277 144.91158268 49.375 150.5625 C49.70838379 151.60212891 50.04176758 152.64175781 50.38525391 153.71289062 C52.00520575 158.78824051 53.57443893 163.86654019 55 169 C51.06946815 168.43450607 48.46592463 167.28617442 45.1875 165.0625 C44.39730469 164.53785156 43.60710937 164.01320313 42.79296875 163.47265625 C42.20128906 162.98667969 41.60960937 162.50070312 41 162 C41 161.34 41 160.68 41 160 C40.26934326 159.73646729 39.53868652 159.47293457 38.78588867 159.20141602 C35.98049586 157.99158883 33.86138386 156.61007186 31.42578125 154.77734375 C30.59369141 154.15666016 29.76160156 153.53597656 28.90429688 152.89648438 C28.04900391 152.25001953 27.19371094 151.60355469 26.3125 150.9375 C24.60119404 149.65370245 22.88899817 148.37109002 21.17578125 147.08984375 C20.42208252 146.52128662 19.66838379 145.95272949 18.8918457 145.36694336 C17.04585799 143.95570353 17.04585799 143.95570353 15 143 C15 142.34 15 141.68 15 141 C14.18547599 140.60760887 14.18547599 140.60760887 13.35449696 140.20729065 C1.02018819 133.88275682 1.02018819 133.88275682 -0.99902916 128.17703247 C-1.35433554 124.76154995 -1.36225679 121.4986887 -1.2487793 118.06640625 C-1.25038559 116.78752029 -1.25199188 115.50863434 -1.25364685 114.19099426 C-1.2567877 110.70431347 -1.19239931 107.2218437 -1.11533332 103.73613739 C-1.04629427 100.0861939 -1.04008638 96.43614021 -1.02705383 92.78564453 C-0.9929422 85.88241323 -0.90278938 78.98111147 -0.79220945 72.07872772 C-0.66900742 64.21681304 -0.60871601 56.3548033 -0.55355966 48.4921627 C-0.43875911 32.32698113 -0.24543951 16.16373725 0 0 Z " fill="#556199" transform="translate(250,167)"/>
<path d="M0 0 C3.9057324 0.59316029 6.21803586 2.48621905 9.25 4.9375 C10.14203125 5.64777344 11.0340625 6.35804687 11.953125 7.08984375 C12.62859375 7.72019531 13.3040625 8.35054687 14 9 C14 9.66 14 10.32 14 11 C16.33214148 12.20628008 18.49642139 13.1654738 21 14 C23.40821931 12.4704553 25.62065052 10.91927158 27.875 9.1875 C35.31511057 3.54084767 35.31511057 3.54084767 40 2 C38.40554307 10.26218593 35.73981931 18.06288986 33 26 C33.556875 26.24878906 34.11375 26.49757812 34.6875 26.75390625 C37.4018475 28.21653607 39.61471387 29.98491059 42 31.9375 C45.59001329 34.87023741 45.59001329 34.87023741 49.3125 37.62890625 C49.869375 38.08136719 50.42625 38.53382813 51 39 C51 39.66 51 40.32 51 41 C43.41 41 35.82 41 28 41 C25.36 47.6 22.72 54.2 20 61 C19.34 61 18.68 61 18 61 C16.99553896 57.7096777 15.99719244 54.41753178 15 51.125 C14.71382812 50.18785156 14.42765625 49.25070313 14.1328125 48.28515625 C13.86210937 47.38925781 13.59140625 46.49335938 13.3125 45.5703125 C13.06113281 44.74289551 12.80976563 43.91547852 12.55078125 43.06298828 C12 41 12 41 12 39 C11.18917969 39.01160156 10.37835938 39.02320313 9.54296875 39.03515625 C2.29433826 39.09422542 -4.79632201 38.80842879 -12 38 C-8.36364015 34.14449982 -4.58308152 31.13258862 -0.1875 28.1875 C0.7087207 27.57745117 0.7087207 27.57745117 1.62304688 26.95507812 C3.07874564 25.96520297 4.53891174 24.98190265 6 24 C4.73181566 17.65907828 2.96287487 11.69804798 0.8046875 5.6015625 C0 3 0 3 0 0 Z " fill="#2C3166" transform="translate(144,113)"/>
<path d="M0 0 C0.66 0.66 1.32 1.32 2 2 C1.76806641 4.15478516 1.76806641 4.15478516 1.1015625 6.7890625 C0.86953125 7.73007812 0.6375 8.67109375 0.3984375 9.640625 C0.01558594 11.11789062 0.01558594 11.11789062 -0.375 12.625 C-0.6225 13.61757813 -0.87 14.61015625 -1.125 15.6328125 C-1.73963531 18.09135374 -2.36502229 20.54664832 -3 23 C-2.3908374 23.47590576 -1.7816748 23.95181152 -1.15405273 24.44213867 C0.38559776 25.64499607 1.92522761 26.84787989 3.46484375 28.05078125 C6.45139888 30.3470694 9.49694733 32.55435824 12.56640625 34.73828125 C13.03949219 35.15464844 13.51257813 35.57101562 14 36 C14 36.66 14 37.32 14 38 C6.41 38 -1.18 38 -9 38 C-9.99 41.63 -10.98 45.26 -12 49 C-12.68476997 50.91231748 -13.400483 52.81494231 -14.1875 54.6875 C-14.53167969 55.51636719 -14.87585938 56.34523438 -15.23046875 57.19921875 C-15.48441406 57.79347656 -15.73835938 58.38773437 -16 59 C-16.66 59 -17.32 59 -18 59 C-18.98188561 56.41767086 -19.96059589 53.83421317 -20.9375 51.25 C-21.21529297 50.52039063 -21.49308594 49.79078125 -21.77929688 49.0390625 C-22.04677734 48.33007812 -22.31425781 47.62109375 -22.58984375 46.890625 C-22.95903931 45.91657715 -22.95903931 45.91657715 -23.33569336 44.92285156 C-24.00534792 42.98452032 -24.50262068 40.98951729 -25 39 C-36.385 38.505 -36.385 38.505 -48 38 C-45.89500365 33.7900073 -43.69245376 31.95556537 -40 29.3125 C-39.18015625 28.70825195 -39.18015625 28.70825195 -38.34375 28.09179688 C-36.28178027 26.58322343 -34.2892269 25.14461345 -32 24 C-32.75435935 18.67184083 -34.3363947 13.94527161 -36.16015625 8.90234375 C-36.97248159 6.0950985 -37.16498111 3.9004743 -37 1 C-30.12304957 4.68468702 -23.54425106 8.75541099 -17 13 C-15.10339726 11.58435393 -13.20770483 10.16751545 -11.3125 8.75 C-9.72888672 7.56664062 -9.72888672 7.56664062 -8.11328125 6.359375 C-5.37175982 4.28173517 -2.6742232 2.16319353 0 0 Z " fill="#292E64" transform="translate(267,388)"/>
<path d="M0 0 C0.66 0.33 1.32 0.66 2 1 C1.67 8.26 1.34 15.52 1 23 C2.65 23.33 4.3 23.66 6 24 C8.22339894 24.74831102 10.43154438 25.54299959 12.625 26.375 C13.75164062 26.79523438 14.87828125 27.21546875 16.0390625 27.6484375 C18.69951189 28.86283788 20.16730063 29.77736459 22 32 C19.64828157 32.82022612 17.2940149 33.6312654 14.9375 34.4375 C14.28072266 34.66759766 13.62394531 34.89769531 12.94726562 35.13476562 C8.62373145 36.60434128 4.53920274 37.48646211 0 38 C-0.01981934 38.59014893 -0.03963867 39.18029785 -0.06005859 39.78833008 C-0.15534659 42.46350096 -0.26500939 45.13789498 -0.375 47.8125 C-0.42140625 49.2056543 -0.42140625 49.2056543 -0.46875 50.62695312 C-0.50742187 51.51962891 -0.54609375 52.41230469 -0.5859375 53.33203125 C-0.6173584 54.15421143 -0.6487793 54.9763916 -0.68115234 55.82348633 C-1 58 -1 58 -3 61 C-7 55 -11 49 -15 43 C-16.02480469 43.2165625 -17.04960937 43.433125 -18.10546875 43.65625 C-19.46609241 43.93775834 -20.82677251 44.21899395 -22.1875 44.5 C-22.86103516 44.64308594 -23.53457031 44.78617187 -24.22851562 44.93359375 C-27.87509793 45.68069842 -31.27648957 46.17352282 -35 46 C-33.87548273 43.0280615 -32.77706209 40.66559313 -31 38 C-30.34 38 -29.68 38 -29 38 C-28.71125 37.21625 -28.4225 36.4325 -28.125 35.625 C-27 33 -27 33 -25 31 C-25.19972603 26.15447288 -27.9099842 22.73394335 -30.5625 18.875 C-35 12.39719272 -35 12.39719272 -35 9 C-27.8821847 11.03807293 -20.93292719 13.40344742 -14 16 C-12.86111328 14.64455078 -12.86111328 14.64455078 -11.69921875 13.26171875 C-10.69538445 12.07025187 -9.69147422 10.87884898 -8.6875 9.6875 C-8.18798828 9.09259766 -7.68847656 8.49769531 -7.17382812 7.88476562 C-6.68720703 7.30791016 -6.20058594 6.73105469 -5.69921875 6.13671875 C-5.25408936 5.60780029 -4.80895996 5.07888184 -4.3503418 4.53393555 C-2.96013395 2.95471373 -1.50273504 1.47187013 0 0 Z " fill="#272D63" transform="translate(398,277)"/>
<path d="M0 0 C0.66 0.33 1.32 0.66 2 1 C1.72285156 2.16917969 1.44570313 3.33835937 1.16015625 4.54296875 C0.79422599 6.09113523 0.42834307 7.63931291 0.0625 9.1875 C-0.11990234 9.95642578 -0.30230469 10.72535156 -0.49023438 11.51757812 C-1.39120113 15.33440092 -2.26637997 19.14656426 -3 23 C1.25939559 26.57757144 5.83047525 29.39433191 10.62304688 32.17578125 C12.11419804 33.06535943 13.56178855 34.02715419 15 35 C15 35.66 15 36.32 15 37 C14.40985107 37.05534912 13.81970215 37.11069824 13.21166992 37.16772461 C10.53658792 37.42067687 7.86205397 37.679027 5.1875 37.9375 C3.7943457 38.06801758 3.7943457 38.06801758 2.37304688 38.20117188 C1.0340332 38.33168945 1.0340332 38.33168945 -0.33203125 38.46484375 C-1.15421143 38.543396 -1.9763916 38.62194824 -2.82348633 38.70288086 C-5.17487422 38.95551045 -5.17487422 38.95551045 -8 40 C-8.83455438 42.6284008 -9.49147879 45.1265854 -10.0625 47.8125 C-12.01666288 56.64154914 -12.01666288 56.64154914 -14 60 C-16.55673544 58.72163228 -16.57553093 57.9095328 -17.47265625 55.25390625 C-17.86227539 54.12178711 -17.86227539 54.12178711 -18.25976562 52.96679688 C-18.52466797 52.17337891 -18.78957031 51.37996094 -19.0625 50.5625 C-19.59405964 49.00096389 -20.12656841 47.43975047 -20.66015625 45.87890625 C-20.89355713 45.1835376 -21.12695801 44.48816895 -21.36743164 43.77172852 C-21.98509013 41.92946417 -21.98509013 41.92946417 -23 40 C-30.59 40 -38.18 40 -46 40 C-46 39.34 -46 38.68 -46 38 C-43.8828125 36.0546875 -43.8828125 36.0546875 -41.125 33.875 C-40.22007812 33.15054688 -39.31515625 32.42609375 -38.3828125 31.6796875 C-36 30 -36 30 -34 30 C-34 29.34 -34 28.68 -34 28 C-30.53846154 25 -30.53846154 25 -28 25 C-28.31807617 24.06148193 -28.31807617 24.06148193 -28.64257812 23.10400391 C-29.59816837 20.27871209 -30.54913818 17.45188651 -31.5 14.625 C-31.83386719 13.64015625 -32.16773438 12.6553125 -32.51171875 11.640625 C-32.82753906 10.69960937 -33.14335937 9.75859375 -33.46875 8.7890625 C-33.76201172 7.91975098 -34.05527344 7.05043945 -34.35742188 6.15478516 C-35 4 -35 4 -35 2 C-29.93433027 3.71060862 -25.99737003 6.76087463 -21.81640625 9.98632812 C-19.04361759 12.0120949 -17.58553227 13.04643334 -14.09375 12.76953125 C-13.4028125 12.51558594 -12.711875 12.26164062 -12 12 C-12 11.34 -12 10.68 -12 10 C-11.34 10 -10.68 10 -10 10 C-10 9.34 -10 8.68 -10 8 C-8.38542921 6.56418526 -6.70780925 5.19855217 -5 3.875 C-3.6078125 2.78832031 -3.6078125 2.78832031 -2.1875 1.6796875 C-1.465625 1.12539062 -0.74375 0.57109375 0 0 Z " fill="#2B3065" transform="translate(351,114)"/>
<path d="M0 0 C4.4265064 0.83356667 5.80665948 2.8217843 8.5625 6.375 C10.95657402 9.43521603 13.24798561 12.24798561 16 15 C22.93 12.36 29.86 9.72 37 7 C37.495 8.485 37.495 8.485 38 10 C37.34 10 36.68 10 36 10 C35.79375 10.66 35.5875 11.32 35.375 12 C34.12220451 14.73337197 32.84188245 16.59696157 31 18.9375 C28.51239097 22.17504999 26.74487011 24.9032144 26 29 C26.74875954 31.33725801 26.74875954 31.33725801 28 33 C28.66 33 29.32 33 30 33 C31.91015625 35.08203125 31.91015625 35.08203125 34.0625 37.8125 C34.77535156 38.70582031 35.48820312 39.59914063 36.22265625 40.51953125 C38 43 38 43 39 46 C32.85407157 45.49623537 27.29383608 44.38092841 21.3828125 42.62109375 C18.92657081 41.87388592 18.92657081 41.87388592 16 42 C15.62488281 42.71285156 15.24976563 43.42570312 14.86328125 44.16015625 C11.89188412 49.7212345 8.94521811 55.06847736 5 60 C4.34 60 3.68 60 3 60 C2.505 48.615 2.505 48.615 2 37 C-2.66540337 36.098311 -2.66540337 36.098311 -7.33251953 35.20556641 C-11.34580654 34.41640636 -15.15098767 33.37892965 -19 32 C-19 31.34 -19 30.68 -19 30 C-18.42967041 29.76289307 -17.85934082 29.52578613 -17.27172852 29.28149414 C-14.70091618 28.21104366 -12.1316958 27.13682419 -9.5625 26.0625 C-8.66466797 25.68931641 -7.76683594 25.31613281 -6.84179688 24.93164062 C-5.98779297 24.57392578 -5.13378906 24.21621094 -4.25390625 23.84765625 C-3.46314697 23.51773682 -2.6723877 23.18781738 -1.85766602 22.84790039 C-0.02623203 22.14278509 -0.02623203 22.14278509 1 21 C1.01665074 19.43576568 0.96308892 17.87064994 0.87890625 16.30859375 C0.83056641 15.36435547 0.78222656 14.42011719 0.73242188 13.44726562 C0.67634766 12.45404297 0.62027344 11.46082031 0.5625 10.4375 C0.48418945 8.94186523 0.48418945 8.94186523 0.40429688 7.41601562 C0.2741763 4.94372478 0.13919819 2.4717937 0 0 Z " fill="#2C3167" transform="translate(100,278)"/>
<path d="M0 0 C4.3913363 1.50771959 7.94520134 3.8797423 11.6875 6.5625 C15.70970455 9.4980153 15.70970455 9.4980153 20 12 C19.49396008 14.16874252 19.00016187 15.99967627 18 18 C16.125 18.5625 16.125 18.5625 14 19 C13.01 19.33 12.02 19.66 11 20 C8.8125 19.0625 8.8125 19.0625 7 18 C6.67 18.66 6.34 19.32 6 20 C4.99513105 17.04329782 3.99693976 14.08438423 3 11.125 C2.71382813 10.28324219 2.42765625 9.44148438 2.1328125 8.57421875 C1.86210937 7.76855469 1.59140625 6.96289062 1.3125 6.1328125 C1.06113281 5.38918457 0.80976563 4.64555664 0.55078125 3.87939453 C0 2 0 2 0 0 Z " fill="#303769" transform="translate(316,116)"/>
<path d="M0 0 C0.66 0 1.32 0 2 0 C2 43.23 2 86.46 2 131 C1.67 131 1.34 131 1 131 C1 90.74 1 50.48 1 9 C0.34 9 -0.32 9 -1 9 C-0.67 9.99 -0.34 10.98 0 12 C-0.66 12 -1.32 12 -2 12 C-2.103125 12.598125 -2.20625 13.19625 -2.3125 13.8125 C-3.08876455 16.28243264 -4.07088921 17.32251235 -6 19 C-6.33 18.34 -6.66 17.68 -7 17 C-6.114476 14.44312277 -5.1719636 11.98944678 -4.125 9.5 C-3.84269531 8.81035156 -3.56039062 8.12070313 -3.26953125 7.41015625 C-2.24006339 4.90723203 -1.21074517 2.42149034 0 0 Z " fill="#2B336E" transform="translate(248,166)"/>
<path d="M0 0 C-0.92039062 0.60585938 -1.84078125 1.21171875 -2.7890625 1.8359375 C-10.69680639 7.06287625 -18.48611954 12.420574 -26.171875 17.96875 C-28.09045261 19.34673392 -30.03456762 20.68971175 -32 22 C-30.83445193 28.0509304 -29.54656904 34.03466226 -28 40 C-28.66 40 -29.32 40 -30 40 C-33.70721995 32.51935975 -34.51345509 26.30085731 -34 18 C-33.01 18 -32.02 18 -31 18 C-31 17.34 -31 16.68 -31 16 C-29.02 16 -27.04 16 -25 16 C-24.67 14.68 -24.34 13.36 -24 12 C-22.68 12 -21.36 12 -20 12 C-20 11.01 -20 10.02 -20 9 C-18.35 8.67 -16.7 8.34 -15 8 C-14.67 6.68 -14.34 5.36 -14 4 C-12.68 4 -11.36 4 -10 4 C-10 3.34 -10 2.68 -10 2 C-9.01 2 -8.02 2 -7 2 C-7 1.34 -7 0.68 -7 0 C-3.98968256 -0.93423645 -3.13349732 -1.04449911 0 0 Z " fill="#CE5556" transform="translate(363,265)"/>
<path d="M0 0 C0.33 0.66 0.66 1.32 1 2 C0.06421005 4.35981813 -0.93347808 6.69631264 -2 9 C0.475 9.99 0.475 9.99 3 11 C0.17265809 13.31327974 -2.69594988 15.56720469 -5.625 17.75 C-6.19476563 18.17796875 -6.76453125 18.6059375 -7.3515625 19.046875 C-9 20 -9 20 -12 20 C-8.92482916 8.47835991 -8.92482916 8.47835991 -7 3 C-6.01 3 -5.02 3 -4 3 C-3.34 2.34 -2.68 1.68 -2 1 C-1.34 0.67 -0.68 0.34 0 0 Z " fill="#404471" transform="translate(134,415)"/>
<path d="M0 0 C0 0.33 0 0.66 0 1 C-2.31 1.66 -4.62 2.32 -7 3 C-7.6814823 4.89179203 -7.6814823 4.89179203 -8 7 C-7.34 7.66 -6.68 8.32 -6 9 C-6 9.99 -6 10.98 -6 12 C-5.34 12 -4.68 12 -4 12 C-4.33 12.99 -4.66 13.98 -5 15 C-7.67414989 13.21930777 -10.33793235 11.42369436 -13 9.625 C-13.763125 9.11710938 -14.52625 8.60921875 -15.3125 8.0859375 C-16.3953125 7.35117188 -16.3953125 7.35117188 -17.5 6.6015625 C-18.1703125 6.15119629 -18.840625 5.70083008 -19.53125 5.23681641 C-20.0159375 4.82866699 -20.500625 4.42051758 -21 4 C-21 3.34 -21 2.68 -21 2 C-13.90961228 0.49025965 -7.24997422 -0.28307925 0 0 Z " fill="#383B6C" transform="translate(179,228)"/>
<path d="M0 0 C0.66 0 1.32 0 2 0 C2.33 2.31 2.66 4.62 3 7 C2.34 7 1.68 7 1 7 C1 24.16 1 41.32 1 59 C1.66 59 2.32 59 3 59 C7.59225513 72.6332574 7.59225513 72.6332574 7 79 C1.50911995 68.27793895 -0.72977783 59.23115901 -0.48828125 47.16796875 C-0.47892449 45.79650683 -0.47182198 44.42502789 -0.46684265 43.05354309 C-0.44799675 39.49070882 -0.39910023 35.92893793 -0.34332275 32.36651611 C-0.291637 28.71258927 -0.26922483 25.05848601 -0.24414062 21.40429688 C-0.19095103 14.26910333 -0.10592192 7.13462207 0 0 Z " fill="#B72732" transform="translate(250,49)"/>
<path d="M0 0 C0 0.66 0 1.32 0 2 C-0.66 2 -1.32 2 -2 2 C-2.226875 2.70125 -2.45375 3.4025 -2.6875 4.125 C-4.31656867 7.69343613 -6.40640731 10.06514511 -9 13 C-9.556875 12.814375 -10.11375 12.62875 -10.6875 12.4375 C-13.399133 11.92448835 -15.34371039 12.3359276 -18 13 C-17.67 12.21625 -17.34 11.4325 -17 10.625 C-15.88133489 8.15667503 -15.88133489 8.15667503 -16 6 C-15.01 5.67 -14.02 5.34 -13 5 C-12.67 4.34 -12.34 3.68 -12 3 C-9.78515625 1.89453125 -9.78515625 1.89453125 -7.0625 0.8125 C-6.16660156 0.44769531 -5.27070313 0.08289063 -4.34765625 -0.29296875 C-2 -1 -2 -1 0 0 Z " fill="#282B60" transform="translate(138,286)"/>
<path d="M0 0 C6.20768526 1.21125566 9.48416179 5.00709367 13 10 C13 10.66 13 11.32 13 12 C7.43109483 11.52013969 2.32932432 10.70084819 -3 9 C-4.125 4.25 -4.125 4.25 -3 2 C-2.01 2 -1.02 2 0 2 C0 1.34 0 0.68 0 0 Z " fill="#272D60" transform="translate(126,312)"/>
<path d="M0 0 C11.08388834 0.52127198 22.00846188 1.47627399 33 3 C33 3.99 33 4.98 33 6 C31.1015625 7.82421875 31.1015625 7.82421875 28.625 9.6875 C27.81289063 10.31011719 27.00078125 10.93273437 26.1640625 11.57421875 C24 13 24 13 22 13 C22 10 22 10 24 7.8125 C24.66 7.214375 25.32 6.61625 26 6 C24.68 6 23.36 6 22 6 C22 5.34 22 4.68 22 4 C21.00033203 4.03480469 21.00033203 4.03480469 19.98046875 4.0703125 C13.08243263 4.20537894 6.73699852 3.45946583 0 2 C0 1.34 0 0.68 0 0 Z " fill="#CE4646" transform="translate(418,197)"/>
<path d="M0 0 C0.66 0 1.32 0 2 0 C4.09230769 4.43076923 4.09230769 4.43076923 3.625 7.3125 C3.41875 7.869375 3.2125 8.42625 3 9 C3 8.01 3 7.02 3 6 C2.34 6 1.68 6 1 6 C1 25.47 1 44.94 1 65 C0.67 65 0.34 65 0 65 C-0.01030746 64.34045319 -0.02061493 63.68090637 -0.03123474 63.00137329 C-0.13915379 56.1560851 -0.25376339 49.31093246 -0.37231445 42.46582031 C-0.41571022 39.90888293 -0.4573818 37.35191569 -0.49731445 34.79492188 C-0.55490469 31.12621041 -0.61863138 27.45764989 -0.68359375 23.7890625 C-0.70030624 22.64007477 -0.71701874 21.49108704 -0.73423767 20.30728149 C-0.75418289 19.2463327 -0.77412811 18.18538391 -0.79467773 17.09228516 C-0.81799416 15.68663803 -0.81799416 15.68663803 -0.84178162 14.25259399 C-0.85779985 11.96486209 -0.85779985 11.96486209 -2 10 C-2.66 10.66 -3.32 11.32 -4 12 C-3.45660208 7.43545749 -2.20536179 4.0271824 0 0 Z " fill="#652747" transform="translate(249,43)"/>
<path d="M0 0 C7.67741935 1.27956989 7.67741935 1.27956989 10 3 C10.75 5.625 10.75 5.625 11 8 C10.34 8 9.68 8 9 8 C9 8.66 9 9.32 9 10 C6.94061515 10.51484621 4.89460574 11.02107885 2.8125 11.4375 C1.9153125 11.7159375 1.9153125 11.7159375 1 12 C0.67 12.66 0.34 13.32 0 14 C0 9.38 0 4.76 0 0 Z " fill="#D31F1D" transform="translate(251,325)"/>
<path d="M0 0 C0.66 0.33 1.32 0.66 2 1 C1.67 8.59 1.34 16.18 1 24 C0.34 24 -0.32 24 -1 24 C-1.66 19.05 -2.32 14.1 -3 9 C-3.66 9 -4.32 9 -5 9 C-5.66 10.65 -6.32 12.3 -7 14 C-8.32 14 -9.64 14 -11 14 C-9.42219077 10.28954753 -7.09296752 7.70093616 -4.375 4.75 C-3.55773437 3.85796875 -2.74046875 2.9659375 -1.8984375 2.046875 C-1.27195312 1.37140625 -0.64546875 0.6959375 0 0 Z " fill="#373B64" transform="translate(398,277)"/>
<path d="M0 0 C5.28175568 0.75453653 9.56143592 2.83752769 13 7 C13 7.66 13 8.32 13 9 C13.804375 9.268125 14.60875 9.53625 15.4375 9.8125 C16.283125 10.204375 17.12875 10.59625 18 11 C18.33 11.99 18.66 12.98 19 14 C19.99 14 20.98 14 22 14 C23.02215235 14.97734567 24.01965042 15.98072835 25 17 C27.03232242 18.19599068 27.03232242 18.19599068 29.1875 19.1875 C29.90292969 19.53167969 30.61835938 19.87585938 31.35546875 20.23046875 C32.16951172 20.61138672 32.16951172 20.61138672 33 21 C32.67 22.32 32.34 23.64 32 25 C31.48614746 24.62713867 30.97229492 24.25427734 30.44287109 23.87011719 C28.08776811 22.16223022 25.73139539 20.45610333 23.375 18.75 C22.56675781 18.16347656 21.75851562 17.57695312 20.92578125 16.97265625 C17.4658748 14.46914671 14.02193687 11.98959682 10.4140625 9.703125 C9.61742187 9.14109375 8.82078125 8.5790625 8 8 C8 7.34 8 6.68 8 6 C7.4225 5.7525 6.845 5.505 6.25 5.25 C3.6997003 3.83316683 1.98214299 2.12372463 0 0 Z " fill="#7A80A5" transform="translate(257,302)"/>
<path d="M0 0 C6.37635558 1.82576776 12.57350619 3.90665868 18.75 6.328125 C21.00705205 7.28165561 21.00705205 7.28165561 23 6 C22.67 6.99 22.34 7.98 22 9 C17.71156299 9.19946219 14.93763883 8.59634007 11 7 C10.01 7.33 9.02 7.66 8 8 C8 9.98 8 11.96 8 14 C5.70982814 11.85086512 3.98684411 9.65481588 2.3125 7 C1.87550781 6.319375 1.43851562 5.63875 0.98828125 4.9375 C0 3 0 3 0 0 Z " fill="#2E3264" transform="translate(363,286)"/>
<path d="M0 0 C0.66 0.33 1.32 0.66 2 1 C2.4140625 3.06640625 2.4140625 3.06640625 2.625 5.5625 C2.69976562 6.38878906 2.77453125 7.21507812 2.8515625 8.06640625 C2.90054687 8.70449219 2.94953125 9.34257812 3 10 C-0.52679099 12.35119399 -2.02879485 12.21443452 -6.1875 12.125 C-7.27417969 12.10695312 -8.36085938 12.08890625 -9.48046875 12.0703125 C-10.72763672 12.03550781 -10.72763672 12.03550781 -12 12 C-12 11.34 -12 10.68 -12 10 C-9.8828125 8.0546875 -9.8828125 8.0546875 -7.125 5.875 C-6.22007812 5.15054688 -5.31515625 4.42609375 -4.3828125 3.6796875 C-2 2 -2 2 0 2 C0 1.34 0 0.68 0 0 Z " fill="#424571" transform="translate(317,142)"/>
<path d="M0 0 C2.02225194 3.0333779 2.99347524 5.61344489 4.125 9.0625 C4.47820312 10.12597656 4.83140625 11.18945312 5.1953125 12.28515625 C6 15 6 15 6 17 C6.95869995 17.03758423 6.95869995 17.03758423 7.93676758 17.07592773 C10.89546745 17.19357147 13.85397594 17.31551778 16.8125 17.4375 C18.31973633 17.49647461 18.31973633 17.49647461 19.85742188 17.55664062 C26.59592939 17.83831457 33.28952975 18.32489406 40 19 C40 19.33 40 19.66 40 20 C10.56793389 20.25758507 10.56793389 20.25758507 5 19 C2.70366176 15.55549263 2.45983515 13.06187717 2 9 C1.01 9 0.02 9 -1 9 C-0.67 6.03 -0.34 3.06 0 0 Z " fill="#D16161" transform="translate(293,169)"/>
<path d="M0 0 C0.33 0.99 0.66 1.98 1 3 C1.99 3.33 2.98 3.66 4 4 C2.3790787 5.17232685 0.75313167 6.3377077 -0.875 7.5 C-1.77992188 8.1496875 -2.68484375 8.799375 -3.6171875 9.46875 C-6 11 -6 11 -8 11 C-8 11.66 -8 12.32 -8 13 C-9.97440927 14.4631783 -11.93238871 15.80713064 -14 17.125 C-14.85851562 17.68380859 -14.85851562 17.68380859 -15.734375 18.25390625 C-17.15221782 19.17550408 -18.57560725 20.08855821 -20 21 C-20.33 20.01 -20.66 19.02 -21 18 C-19.87926138 17.16094435 -18.75325453 16.32892169 -17.625 15.5 C-16.99851563 15.0359375 -16.37203125 14.571875 -15.7265625 14.09375 C-14 13 -14 13 -12 13 C-12 12.34 -12 11.68 -12 11 C-11.34 11 -10.68 11 -10 11 C-10 10.34 -10 9.68 -10 9 C-9.01 8.67 -8.02 8.34 -7 8 C-5.79117904 5.99983534 -5.79117904 5.99983534 -5 4 C-4.34 4 -3.68 4 -3 4 C-3 3.01 -3 2.02 -3 1 C-2.01 0.67 -1.02 0.34 0 0 Z " fill="#454874" transform="translate(233,353)"/>
<path d="M0 0 C1.65 0 3.3 0 5 0 C5 0.99 5 1.98 5 3 C4.34 3 3.68 3 3 3 C3 4.65 3 6.3 3 8 C3.66 8 4.32 8 5 8 C5.33 8.99 5.66 9.98 6 11 C7.670625 11.07347656 7.670625 11.07347656 9.375 11.1484375 C17.29566504 11.52469746 25.18499823 12.01169425 33.0625 12.9375 C34.37347656 13.09089844 35.68445313 13.24429688 37.03515625 13.40234375 C38.01355469 13.59957031 38.99195313 13.79679688 40 14 C40.495 14.99 40.495 14.99 41 16 C35.24604297 15.77388793 29.49880564 15.49421238 23.75048828 15.15332031 C21.98398361 15.05485014 20.21665683 14.96971573 18.44873047 14.90136719 C5.34296006 14.37808779 5.34296006 14.37808779 2.05859375 11.0078125 C0.25215198 7.16833697 0 4.25142436 0 0 Z " fill="#CB5151" transform="translate(280,193)"/>
<path d="M0 0 C1.57982484 2.97373707 2.70536466 5.92607671 3.7265625 9.1328125 C4.0359375 10.10347656 4.3453125 11.07414062 4.6640625 12.07421875 C4.98117187 13.08097656 5.29828125 14.08773438 5.625 15.125 C5.94984375 16.13949219 6.2746875 17.15398437 6.609375 18.19921875 C9 25.74274554 9 25.74274554 9 28 C8.34 28 7.68 28 7 28 C7 26.68 7 25.36 7 24 C3.95086772 22.98888907 3.95086772 22.98888907 1 24 C-0.125 22.25 -0.125 22.25 -1 20 C-0.1875 17.9375 -0.1875 17.9375 1 16 C2.33304698 13.10813214 2.33304698 13.10813214 1.0625 10.8125 C-0.3625659 7.04026674 -0.13624461 4.01921587 0 0 Z " fill="#D03734" transform="translate(354,367)"/>
<path d="M0 0 C12.42307129 7.67047284 12.42307129 7.67047284 17 12 C17 12.66 17 13.32 17 14 C9.41 14 1.82 14 -6 14 C-6 13.67 -6 13.34 -6 13 C1.92 12.505 1.92 12.505 10 12 C10 11.34 10 10.68 10 10 C8.63875 9.62875 8.63875 9.62875 7.25 9.25 C3.84007371 7.93848989 2.20504759 6.88352377 0 4 C0 2.68 0 1.36 0 0 Z " fill="#5B5F80" transform="translate(264,412)"/>
<path d="M0 0 C2.4375 0.8125 2.4375 0.8125 5 2 C5.33 2.99 5.66 3.98 6 5 C5.34 5 4.68 5 4 5 C4.25662245 6.44010481 4.53090821 7.8770687 4.8125 9.3125 C5.03873047 10.51326172 5.03873047 10.51326172 5.26953125 11.73828125 C6.08376797 14.25936715 7.14271289 15.18398594 9 17 C8.6875 19.6875 8.6875 19.6875 8 22 C8.99 22 9.98 22 11 22 C12.09658936 25.28976808 11.79953138 26.71303767 11 30 C10.34 30 9.68 30 9 30 C5.59403351 20.07970924 2.29059579 10.2474022 0 0 Z " fill="#D35251" transform="translate(329,353)"/>
<path d="M0 0 C0.33 0 0.66 0 1 0 C1.16527606 9.09018304 1.12019166 16.23712878 -4 24 C-4.66 24 -5.32 24 -6 24 C-6.33 26.31 -6.66 28.62 -7 31 C-7.66 31 -8.32 31 -9 31 C-6.85472237 20.34888474 -3.55446948 10.24929548 0 0 Z " fill="#474A73" transform="translate(150,344)"/>
<path d="M0 0 C0 0.33 0 0.66 0 1 C-7.98079085 2.64733759 -15.86894139 3.50877547 -24 4 C-24 4.99 -24 5.98 -24 7 C-21.03 7.495 -21.03 7.495 -18 8 C-18.33 9.32 -18.66 10.64 -19 12 C-20.83893824 10.71632558 -22.67102625 9.42283239 -24.5 8.125 C-25.5209375 7.40570313 -26.541875 6.68640625 -27.59375 5.9453125 C-28.3878125 5.30335938 -29.181875 4.66140625 -30 4 C-30 3.34 -30 2.68 -30 2 C-19.96788765 0.75155935 -10.13270429 -0.35762486 0 0 Z " fill="#54557B" transform="translate(77,198)"/>
<path d="M0 0 C0.66 0 1.32 0 2 0 C2 6.6 2 13.2 2 20 C1.67 20 1.34 20 1 20 C1 16.37 1 12.74 1 9 C0.34 9 -0.32 9 -1 9 C-0.67 9.99 -0.34 10.98 0 12 C-0.66 12 -1.32 12 -2 12 C-2.103125 12.598125 -2.20625 13.19625 -2.3125 13.8125 C-3.08876455 16.28243264 -4.07088921 17.32251235 -6 19 C-6.33 18.34 -6.66 17.68 -7 17 C-6.114476 14.44312277 -5.1719636 11.98944678 -4.125 9.5 C-3.84269531 8.81035156 -3.56039062 8.12070313 -3.26953125 7.41015625 C-2.24006339 4.90723203 -1.21074517 2.42149034 0 0 Z " fill="#404571" transform="translate(248,166)"/>
<path d="M0 0 C-0.99043705 4.83628305 -1.95698846 9.47618873 -4 14 C-4.37125 13.360625 -4.7425 12.72125 -5.125 12.0625 C-7.58052793 9.36141928 -9.44578805 9.31592995 -13 9 C-4.5 0 -4.5 0 0 0 Z " fill="#3A3B67" transform="translate(184,115)"/>
<path d="M0 0 C2.475 0.99 2.475 0.99 5 2 C3.71034824 3.37562854 2.37310707 4.70766393 1 6 C0.34 6 -0.32 6 -1 6 C-1 6.66 -1 7.32 -1 8 C-3.08203125 9.7265625 -3.08203125 9.7265625 -5.8125 11.625 C-7.15248047 12.57246094 -7.15248047 12.57246094 -8.51953125 13.5390625 C-11 15 -11 15 -14 15 C-13.34 11.7 -12.68 8.4 -12 5 C-11 9 -11 9 -12 11 C-11.01 11 -10.02 11 -9 11 C-8.67 10.01 -8.34 9.02 -8 8 C-6.02 7.67 -4.04 7.34 -2 7 C-2 6.34 -2 5.68 -2 5 C-1.34 5 -0.68 5 0 5 C0 3.35 0 1.7 0 0 Z " fill="#5B5E80" transform="translate(209,321)"/>
<path d="M0 0 C0.66 0.33 1.32 0.66 2 1 C0.68 6.61 -0.64 12.22 -2 18 C-2.33 18 -2.66 18 -3 18 C-3.13020833 16.01432292 -3.26041667 14.02864583 -3.390625 12.04296875 C-3.95394027 9.41462565 -3.95394027 9.41462565 -8 7 C-5.36 4.69 -2.72 2.38 0 0 Z " fill="#595C81" transform="translate(351,114)"/>
<path d="M0 0 C4.67105792 1.55701931 8.08705685 4.08447373 12 7 C10.02 7.99 10.02 7.99 8 9 C8 8.34 8 7.68 8 7 C7.01 7.495 7.01 7.495 6 8 C5.34227572 11.02934491 5.34227572 11.02934491 5 14 C3.23662322 11.35493484 2.3439149 9.40786033 1.375 6.4375 C0.98441406 5.25994141 0.98441406 5.25994141 0.5859375 4.05859375 C0 2 0 2 0 0 Z " fill="#56577A" transform="translate(316,116)"/>
<path d="M0 0 C0.33 0 0.66 0 1 0 C1 1.65 1 3.3 1 5 C4.465 4.505 4.465 4.505 8 4 C7.01 7.3 6.02 10.6 5 14 C4.34 14 3.68 14 3 14 C2.3012307 12.23358317 1.61633417 10.46167336 0.9375 8.6875 C0.55464844 7.70136719 0.17179688 6.71523438 -0.22265625 5.69921875 C-1 3 -1 3 0 0 Z " fill="#5A5C82" transform="translate(246,433)"/>
<path d="M0 0 C2.02225194 3.0333779 2.99347524 5.61344489 4.125 9.0625 C4.47820312 10.12597656 4.83140625 11.18945312 5.1953125 12.28515625 C6 15 6 15 6 17 C5.01 17 4.02 17 3 17 C2.67 17.99 2.34 18.98 2 20 C1.34 20 0.68 20 0 20 C0.185625 19.071875 0.37125 18.14375 0.5625 17.1875 C1.24123881 13.98656229 1.24123881 13.98656229 0 11 C-0.0685495 9.10529184 -0.08480372 7.2083166 -0.0625 5.3125 C-0.05347656 4.31863281 -0.04445313 3.32476562 -0.03515625 2.30078125 C-0.02355469 1.54152344 -0.01195312 0.78226562 0 0 Z " fill="#CE4340" transform="translate(266,92)"/>
<path d="M0 0 C0.66 0 1.32 0 2 0 C2.33 1.65 2.66 3.3 3 5 C4.65 4.67 6.3 4.34 8 4 C8 3.34 8 2.68 8 2 C8.66 2 9.32 2 10 2 C10 2.66 10 3.32 10 4 C11.65 4 13.3 4 15 4 C15 4.33 15 4.66 15 5 C12.77228658 5.50643553 10.54275924 6.0048962 8.3125 6.5 C6.45044922 6.91765625 6.45044922 6.91765625 4.55078125 7.34375 C1.57601782 7.89354126 -0.99368602 8.13795705 -4 8 C-2.87548273 5.0280615 -1.77706209 2.66559313 0 0 Z " fill="#55577A" transform="translate(367,315)"/>
<path d="M0 0 C0.99 0.33 1.98 0.66 3 1 C2 4 2 4 -1 6 C0.16554807 12.0509304 1.45343096 18.03466226 3 24 C2.34 24 1.68 24 1 24 C-2.70721995 16.51935975 -3.51345509 10.30085731 -3 2 C-2.01 2 -1.02 2 0 2 C0 1.34 0 0.68 0 0 Z " fill="#D0605F" transform="translate(332,281)"/>
<path d="M0 0 C0.66 0 1.32 0 2 0 C2.185625 0.9590625 2.185625 0.9590625 2.375 1.9375 C2.684375 2.9584375 2.684375 2.9584375 3 4 C3.66 4.33 4.32 4.66 5 5 C6.90303246 10.18047725 7.19286332 14.50339543 7 20 C7.66 20.33 8.32 20.66 9 21 C8.34 21.99 7.68 22.98 7 24 C5.82865778 20.37649379 4.66372198 16.75096001 3.5 13.125 C3.16613281 12.09246094 2.83226562 11.05992187 2.48828125 9.99609375 C2.17246094 9.00996094 1.85664063 8.02382813 1.53125 7.0078125 C1.09135742 5.64100342 1.09135742 5.64100342 0.64257812 4.24658203 C0 2 0 2 0 0 Z " fill="#CA4A4C" transform="translate(316,313)"/>
<path d="M0 0 C1.57554035 2.88628401 2.46276373 5.53342384 3.125 8.75 C3.29257812 9.54921875 3.46015625 10.3484375 3.6328125 11.171875 C3.81457031 12.07679688 3.81457031 12.07679688 4 13 C-0.67105792 11.44298069 -4.08705685 8.91552627 -8 6 C-4.90279155 5.12159004 -3.09354597 5.00564594 0 6 C0 4.02 0 2.04 0 0 Z " fill="#CF4B49" transform="translate(372,423)"/>
<path d="M0 0 C-2.61978231 1.84087999 -5.24664581 3.67138435 -7.875 5.5 C-8.62136719 6.02464844 -9.36773437 6.54929688 -10.13671875 7.08984375 C-10.85214844 7.58613281 -11.56757813 8.08242187 -12.3046875 8.59375 C-13.2944458 9.28500977 -13.2944458 9.28500977 -14.30419922 9.99023438 C-16 11 -16 11 -18 11 C-17.67 9.35 -17.34 7.7 -17 6 C-15.02 6.495 -15.02 6.495 -13 7 C-13 6.34 -13 5.68 -13 5 C-12.34 5 -11.68 5 -11 5 C-10.67 4.01 -10.34 3.02 -10 2 C-10 2.66 -10 3.32 -10 4 C-9.34 4 -8.68 4 -8 4 C-8 2.68 -8 1.36 -8 0 C-4.90645403 -0.99435406 -3.09720845 -0.87840996 0 0 Z " fill="#D35C5D" transform="translate(436,214)"/>
<path d="M0 0 C0.33 0 0.66 0 1 0 C1 1.98 1 3.96 1 6 C1.66 6 2.32 6 3 6 C7.59225513 19.6332574 7.59225513 19.6332574 7 26 C2.63368271 17.5734157 -0.81281063 9.5911654 0 0 Z " fill="#C44042" transform="translate(250,102)"/>
<path d="M0 0 C1.32 0.33 2.64 0.66 4 1 C5.75 4.5625 5.75 4.5625 7 8 C5.68 8 4.36 8 3 8 C3 11.3 3 14.6 3 18 C2.67 18 2.34 18 2 18 C1.34 12.06 0.68 6.12 0 0 Z " fill="#3B3E67" transform="translate(100,278)"/>
<path d="M0 0 C0 0.66 0 1.32 0 2 C-0.66 2 -1.32 2 -2 2 C-2.2475 2.7425 -2.495 3.485 -2.75 4.25 C-4.09147301 7.20124062 -5.60905526 8.84814974 -8 11 C-8 8.69 -8 6.38 -8 4 C-9.32 3.67 -10.64 3.34 -12 3 C-10.3789897 2.30314502 -8.75303934 1.61777139 -7.125 0.9375 C-6.22007812 0.55464844 -5.31515625 0.17179687 -4.3828125 -0.22265625 C-2 -1 -2 -1 0 0 Z " fill="#56587E" transform="translate(138,286)"/>
<path d="M0 0 C3.3 0.99 6.6 1.98 10 3 C8.02 3.99 8.02 3.99 6 5 C5.67 5.99 5.34 6.98 5 8 C5.99 8.33 6.98 8.66 8 9 C8 10.65 8 12.3 8 14 C5.70982814 11.85086512 3.98684411 9.65481588 2.3125 7 C1.87550781 6.319375 1.43851562 5.63875 0.98828125 4.9375 C0 3 0 3 0 0 Z " fill="#696B88" transform="translate(363,286)"/>
<path d="M0 0 C0 4.24645065 -1.81750806 6.38524772 -4 10 C-6.64 10 -9.28 10 -12 10 C-10.37660195 8.29115995 -8.70680947 6.62553283 -7 5 C-6.34 5 -5.68 5 -5 5 C-5 4.34 -5 3.68 -5 3 C-2.5 1.375 -2.5 1.375 0 0 Z " fill="#CF4748" transform="translate(344,251)"/>
<path d="M0 0 C2.08816865 4.058694 3.68027145 8.21958279 5.25 12.5 C5.54390625 13.25925781 5.8378125 14.01851562 6.140625 14.80078125 C6.40875 15.53683594 6.676875 16.27289063 6.953125 17.03125 C7.20223633 17.69705078 7.45134766 18.36285156 7.70800781 19.04882812 C8 21 8 21 6 25 C5.34 21.37 4.68 17.74 4 14 C3.34 14 2.68 14 2 14 C0.02905192 9.07262981 -0.1799928 5.21979128 0 0 Z " fill="#CF595B" transform="translate(285,146)"/>
<path d="M0 0 C0 0.66 0 1.32 0 2 C-2.265625 3.65625 -2.265625 3.65625 -5.25 5.5 C-6.22453125 6.1084375 -7.1990625 6.716875 -8.203125 7.34375 C-10.43790366 8.66713848 -12.65716472 9.88436415 -15 11 C-15.33 10.01 -15.66 9.02 -16 8 C-15.01 7.67 -14.02 7.34 -13 7 C-12.67 6.34 -12.34 5.68 -12 5 C-10.68 5 -9.36 5 -8 5 C-8 4.34 -8 3.68 -8 3 C-5.65966534 -0.20256322 -3.8395009 -0.31131088 0 0 Z " fill="#7E84AC" transform="translate(336,234)"/>
<path d="M0 0 C5.61 0.33 11.22 0.66 17 1 C16.67 1.99 16.34 2.98 16 4 C9.30403958 5.43484866 5.79424351 4.59058175 0 1 C0 0.67 0 0.34 0 0 Z " fill="#6F75A3" transform="translate(295,225)"/>
<path d="M0 0 C1.32 0.33 2.64 0.66 4 1 C4.33 3.31 4.66 5.62 5 8 C4.01 8 3.02 8 2 8 C2 9.32 2 10.64 2 12 C1.34 12.99 0.68 13.98 0 15 C0 10.05 0 5.1 0 0 Z " fill="#242651" transform="translate(104,322)"/>
<path d="M0 0 C2.475 0.99 2.475 0.99 5 2 C3.35821735 6.77609498 0.73453298 10.79382904 -2 15 C-3 12 -3 12 -3 8 C-2.01 7.67 -1.02 7.34 0 7 C0 4.69 0 2.38 0 0 Z " fill="#52577F" transform="translate(108,322)"/>
<path d="M0 0 C2.97 1.65 5.94 3.3 9 5 C5 7 5 7 3 7 C3.33 7.33 3.66 7.66 4 8 C4.04092937 10.33297433 4.04241723 12.66705225 4 15 C1.27597115 9.94108928 0 5.79459682 0 0 Z " fill="#696E8D" transform="translate(230,389)"/>
<path d="M0 0 C2.81191561 2.81191561 3.53516103 6.16519078 4.6875 9.875 C4.92533203 10.59558594 5.16316406 11.31617188 5.40820312 12.05859375 C6.58394389 15.80303502 7.1851875 18.25823079 6 22 C5.67 22 5.34 22 5 22 C4.87625 21.030625 4.7525 20.06125 4.625 19.0625 C4.315625 17.5465625 4.315625 17.5465625 4 16 C3.34 15.67 2.68 15.34 2 15 C1.3671875 12.63671875 1.3671875 12.63671875 0.875 9.6875 C0.70742188 8.72199219 0.53984375 7.75648438 0.3671875 6.76171875 C0 4 0 4 0 0 Z " fill="#D25C58" transform="translate(347,346)"/>
<path d="M0 0 C2.97 0 5.94 0 9 0 C9 0.99 9 1.98 9 3 C7.1015625 4.82421875 7.1015625 4.82421875 4.625 6.6875 C3.81289063 7.31011719 3.00078125 7.93273437 2.1640625 8.57421875 C0 10 0 10 -2 10 C-2 9.01 -2 8.02 -2 7 C0.53184488 4.64276511 1.47190093 4 5 4 C5 3.01 5 2.02 5 1 C3.35 1 1.7 1 0 1 C0 0.67 0 0.34 0 0 Z " fill="#CA5A5A" transform="translate(442,200)"/>
<path d="M0 0 C2.31 0.33 4.62 0.66 7 1 C7 2.32 7 3.64 7 5 C2.05 5 -2.9 5 -8 5 C-8 4.67 -8 4.34 -8 4 C-5.36 3.67 -2.72 3.34 0 3 C0 2.01 0 1.02 0 0 Z " fill="#20245C" transform="translate(267,420)"/>
<path d="M0 0 C0.66 0.66 1.32 1.32 2 2 C1.5390625 4.8203125 1.5390625 4.8203125 0.625 8.125 C0.32851563 9.22070312 0.03203125 10.31640625 -0.2734375 11.4453125 C-0.51320313 12.28835938 -0.75296875 13.13140625 -1 14 C-2.20628008 11.66785852 -3.1654738 9.50357861 -4 7 C-3.34 7 -2.68 7 -2 7 C-2 6.34 -2 5.68 -2 5 C-3.32 5.33 -4.64 5.66 -6 6 C-2.25 1.125 -2.25 1.125 0 0 Z " fill="#5D6182" transform="translate(267,388)"/>
<path d="M0 0 C4.40824473 2.90299043 8.71640781 5.91581363 13 9 C11.02 9.99 11.02 9.99 9 11 C7.5 9.625 7.5 9.625 6 8 C6 7.34 6 6.68 6 6 C3.69 6.33 1.38 6.66 -1 7 C-1 6.34 -1 5.68 -1 5 C-0.34 5 0.32 5 1 5 C0.67 3.35 0.34 1.7 0 0 Z " fill="#D24640" transform="translate(261,328)"/>
<path d="M0 0 C3.87665788 0.52387269 5.30091511 1.30091511 8 4 C10.03232242 5.19599068 10.03232242 5.19599068 12.1875 6.1875 C12.90292969 6.53167969 13.61835938 6.87585938 14.35546875 7.23046875 C15.16951172 7.61138672 15.16951172 7.61138672 16 8 C15.67 9.32 15.34 10.64 15 12 C12.49618432 10.19272453 9.99761453 8.37833327 7.5 6.5625 C6.78457031 6.04623047 6.06914062 5.52996094 5.33203125 4.99804688 C4.65527344 4.50498047 3.97851562 4.01191406 3.28125 3.50390625 C2.65283203 3.04830322 2.02441406 2.5927002 1.37695312 2.12329102 C0.92255859 1.75260498 0.46816406 1.38191895 0 1 C0 0.67 0 0.34 0 0 Z " fill="#8289AC" transform="translate(274,315)"/>
<path d="M0 0 C2.5625 1.4375 2.5625 1.4375 5 4 C5.1493847 7.09973249 4.65273326 9.97545382 4 13 C3.67 12.34 3.34 11.68 3 11 C2.34 11 1.68 11 1 11 C1 10.34 1 9.68 1 9 C0.01 8.67 -0.98 8.34 -2 8 C-1.2265625 7.4121875 -1.2265625 7.4121875 -0.4375 6.8125 C0.036875 6.214375 0.51125 5.61625 1 5 C0.76956136 2.34533951 0.76956136 2.34533951 0 0 Z " fill="#4D5279" transform="translate(188,274)"/>
<path d="M0 0 C-0.46800711 4.05606165 -0.87953208 7.46588679 -3 11 C-3.66 10.67 -4.32 10.34 -5 10 C-5.6328125 7.93359375 -5.6328125 7.93359375 -6.125 5.4375 C-6.29257812 4.61121094 -6.46015625 3.78492188 -6.6328125 2.93359375 C-6.75398438 2.29550781 -6.87515625 1.65742188 -7 1 C-6.67 1.66 -6.34 2.32 -6 3 C-5.195625 2.505 -4.39125 2.01 -3.5625 1.5 C-1 0 -1 0 0 0 Z " fill="#5C5F7F" transform="translate(340,163)"/>
<path d="M0 0 C0.66 0 1.32 0 2 0 C4.09230769 4.43076923 4.09230769 4.43076923 3.625 7.3125 C3.41875 7.869375 3.2125 8.42625 3 9 C3 8.01 3 7.02 3 6 C2.34 6 1.68 6 1 6 C0.67 7.98 0.34 9.96 0 12 C-0.66 11.34 -1.32 10.68 -2 10 C-2.66 10.66 -3.32 11.32 -4 12 C-3.45660208 7.43545749 -2.20536179 4.0271824 0 0 Z " fill="#896779" transform="translate(249,43)"/>
<path d="M0 0 C2 1 2 1 3 3 C2.525625 3.45375 2.05125 3.9075 1.5625 4.375 C-0.09027808 5.93258204 -0.09027808 5.93258204 -1 8 C-2.65 7.67 -4.3 7.34 -6 7 C-6 6.34 -6 5.68 -6 5 C-6.66 4.67 -7.32 4.34 -8 4 C-5 2 -5 2 -1 2 C-0.67 1.34 -0.34 0.68 0 0 Z " fill="#353C6A" transform="translate(115,316)"/>
<path d="M0 0 C1.32 0 2.64 0 4 0 C4.66 0.66 5.32 1.32 6 2 C6 1.34 6 0.68 6 0 C9 1 9 1 10.16796875 2.84765625 C10.50441406 3.57855469 10.84085937 4.30945313 11.1875 5.0625 C11.53167969 5.79597656 11.87585938 6.52945312 12.23046875 7.28515625 C12.48441406 7.85105469 12.73835938 8.41695313 13 9 C12.34 9 11.68 9 11 9 C11 8.34 11 7.68 11 7 C10.29875 6.7525 9.5975 6.505 8.875 6.25 C5.61912106 4.83440046 2.87631441 3.07362202 0 1 C0 0.67 0 0.34 0 0 Z " fill="#D35451" transform="translate(347,416)"/>
<path d="M0 0 C0.33 0 0.66 0 1 0 C1.38133299 1.9914056 1.71325582 3.99279077 2 6 C1.67 6.33 1.34 6.66 1 7 C0.95907063 9.33297433 0.95758277 11.66705225 1 14 C-0.65 14.33 -2.3 14.66 -4 15 C-2.9318153 9.88634986 -1.76892524 4.92772031 0 0 Z " fill="#55577C" transform="translate(155,329)"/>
<path d="M0 0 C3.27275026 0 5.846632 0.29925156 9 1 C9 1.66 9 2.32 9 3 C8.01 3 7.02 3 6 3 C6 3.66 6 4.32 6 5 C4.35 5.33 2.7 5.66 1 6 C1 5.34 1 4.68 1 4 C0.34 3.67 -0.32 3.34 -1 3 C-0.67 2.01 -0.34 1.02 0 0 Z " fill="#20265E" transform="translate(369,314)"/>
<path d="M0 0 C0.99 0.33 1.98 0.66 3 1 C3 1.66 3 2.32 3 3 C2.34 3 1.68 3 1 3 C1 3.66 1 4.32 1 5 C-0.32 5 -1.64 5 -3 5 C-3.33 6.32 -3.66 7.64 -4 9 C-4.99 9 -5.98 9 -7 9 C-7 7.35 -7 5.7 -7 4 C-4.35261084 2.5393715 -3.10551666 2 0 2 C0 1.34 0 0.68 0 0 Z " fill="#D81C1B" transform="translate(352,264)"/>
<path d="M0 0 C0.66 0.33 1.32 0.66 2 1 C1.01 3.31 0.02 5.62 -1 8 C-3.64 8 -6.28 8 -9 8 C-6.14723863 5.06799526 -3.34920216 2.35684596 0 0 Z " fill="#57597B" transform="translate(141,143)"/>
<path d="M0 0 C0.33 0.99 0.66 1.98 1 3 C0.67 3.66 0.34 4.32 0 5 C0.556875 5.103125 1.11375 5.20625 1.6875 5.3125 C4.56258564 6.16725519 6.62545297 7.15313009 9 9 C9.3125 11.6875 9.3125 11.6875 9 14 C8.01 14.495 8.01 14.495 7 15 C6.92458984 13.87851562 6.92458984 13.87851562 6.84765625 12.734375 C5.67400967 8.94841829 3.81809605 8.20150628 0.4375 6.25 C-1.38432977 5.18243096 -3.19962217 4.1033617 -5 3 C-5 2.67 -5 2.34 -5 2 C-3.35 2 -1.7 2 0 2 C0 1.34 0 0.68 0 0 Z " fill="#64688D" transform="translate(206,260)"/>
<path d="M0 0 C1.65 0 3.3 0 5 0 C5.33 1.65 5.66 3.3 6 5 C8.97 5.495 8.97 5.495 12 6 C11.67 7.32 11.34 8.64 11 10 C9.16106176 8.71632558 7.32897375 7.42283239 5.5 6.125 C4.4790625 5.40570313 3.458125 4.68640625 2.40625 3.9453125 C1.6121875 3.30335938 0.818125 2.66140625 0 2 C0 1.34 0 0.68 0 0 Z " fill="#65698A" transform="translate(47,200)"/>
<path d="M0 0 C1.2065625 0.0309375 1.2065625 0.0309375 2.4375 0.0625 C2.4375 2.0425 2.4375 4.0225 2.4375 6.0625 C1.1175 6.0625 -0.2025 6.0625 -1.5625 6.0625 C-3.57745907 6.68248741 -5.5812415 7.34204236 -7.5625 8.0625 C-7.5625 7.4025 -7.5625 6.7425 -7.5625 6.0625 C-6.5725 6.0625 -5.5825 6.0625 -4.5625 6.0625 C-4.418125 5.258125 -4.27375 4.45375 -4.125 3.625 C-3.347189 0.08163876 -3.347189 0.08163876 0 0 Z " fill="#20255C" transform="translate(205.5625,179.9375)"/>
<path d="M0 0 C1.66666667 1.66666667 3.33333333 3.33333333 5 5 C5.763125 5.721875 6.52625 6.44375 7.3125 7.1875 C9 9 9 9 9 11 C6.03 10.67 3.06 10.34 0 10 C0.99 9.01 1.98 8.02 3 7 C2.505 6.21625 2.01 5.4325 1.5 4.625 C0 2 0 2 0 0 Z " fill="#676D89" transform="translate(130,313)"/>
<path d="M0 0 C0.33 0 0.66 0 1 0 C1.28571429 7.42857143 1.28571429 7.42857143 -1 11 C-1.66 11 -2.32 11 -3 11 C-3.33 8.69 -3.66 6.38 -4 4 C-2.68 3.34 -1.36 2.68 0 2 C0 1.34 0 0.68 0 0 Z " fill="#50567A" transform="translate(165,163)"/>
<path d="M0 0 C1.15957207 3.47871621 0.77456651 4.34219645 -0.4375 7.6875 C-0.72496094 8.49574219 -1.01242188 9.30398437 -1.30859375 10.13671875 C-1.53675781 10.75160156 -1.76492187 11.36648437 -2 12 C-3.4606285 9.35261084 -4 8.10551666 -4 5 C-4.66 4.67 -5.32 4.34 -6 4 C-5.34 4 -4.68 4 -4 4 C-4 3.34 -4 2.68 -4 2 C-2.68 2 -1.36 2 0 2 C0 1.34 0 0.68 0 0 Z M-7 5 C-7 8 -7 8 -7 8 Z " fill="#4F537D" transform="translate(240,131)"/>
<path d="M0 0 C2.00720923 0.28674418 4.0085944 0.61866701 6 1 C5.67 2.98 5.34 4.96 5 7 C3 7 1 7 -1 7 C-1.04254356 5.00045254 -1.04080783 2.99958364 -1 1 C-0.67 0.67 -0.34 0.34 0 0 Z " fill="#20275D" transform="translate(322,123)"/>
<path d="M0 0 C1.32 0.33 2.64 0.66 4 1 C0.11327187 4.18005028 -3.89952133 7.10554447 -8 10 C-8.33 9.01 -8.66 8.02 -9 7 C-7.87926138 6.16094435 -6.75325453 5.32892169 -5.625 4.5 C-4.99851563 4.0359375 -4.37203125 3.571875 -3.7265625 3.09375 C-2 2 -2 2 0 2 C0 1.34 0 0.68 0 0 Z " fill="#5D5F7F" transform="translate(221,364)"/>
<path d="M0 0 C-1.31225809 3.93677426 -3.1961394 4.8271782 -6.5625 7.1875 C-7.57441406 7.90292969 -8.58632813 8.61835938 -9.62890625 9.35546875 C-10.41136719 9.89816406 -11.19382812 10.44085938 -12 11 C-12.33 10.01 -12.66 9.02 -13 8 C-12.01 8 -11.02 8 -10 8 C-9.67 6.68 -9.34 5.36 -9 4 C-7.68 4 -6.36 4 -5 4 C-5 3.01 -5 2.02 -5 1 C-2 0 -2 0 0 0 Z " fill="#D56969" transform="translate(348,273)"/>
<path d="M0 0 C0 0.66 0 1.32 0 2 C-6.65637843 3.23839599 -13.2471936 3.09139136 -20 3 C-20 2.67 -20 2.34 -20 2 C-13.25846717 0.74158054 -6.86515862 -0.26404456 0 0 Z " fill="#5E6183" transform="translate(165,209)"/>
<path d="M0 0 C0.66 0.33 1.32 0.66 2 1 C0.4404735 4.82792868 -1.83631836 7.36359864 -5 10 C-7.3125 9.8125 -7.3125 9.8125 -9 9 C-6.19195732 6.03595495 -3.81684226 3.55500981 0 2 C0 1.34 0 0.68 0 0 Z " fill="#575B81" transform="translate(317,142)"/>
<path d="M0 0 C0.99 0.495 0.99 0.495 2 1 C1.67 2.65 1.34 4.3 1 6 C1.99 6 2.98 6 4 6 C5.09658936 9.28976808 4.79953138 10.71303767 4 14 C3.34 14 2.68 14 2 14 C0.02905192 9.07262981 -0.1799928 5.21979128 0 0 Z " fill="#CD3A3C" transform="translate(336,369)"/>
<path d="M0 0 C1.32 0 2.64 0 4 0 C4 0.66 4 1.32 4 2 C2.1015625 3.5078125 2.1015625 3.5078125 -0.375 5.125 C-1.59316406 5.93324219 -1.59316406 5.93324219 -2.8359375 6.7578125 C-5 8 -5 8 -7 8 C-6.67 6.35 -6.34 4.7 -6 3 C-4.02 3.495 -4.02 3.495 -2 4 C-2 3.34 -2 2.68 -2 2 C-1.34 1.34 -0.68 0.68 0 0 Z " fill="#D45E5F" transform="translate(380,249)"/>
<path d="M0 0 C3.63 0 7.26 0 11 0 C6.375 4.875 6.375 4.875 3 6 C2.67 5.01 2.34 4.02 2 3 C1.34 2.67 0.68 2.34 0 2 C0 1.34 0 0.68 0 0 Z " fill="#1F2657" transform="translate(206,225)"/>
<path d="M0 0 C1.46491151 2.79607022 2.62245922 5.57006766 3.625 8.5625 C4.01558594 9.70912109 4.01558594 9.70912109 4.4140625 10.87890625 C5 13 5 13 5 16 C4.34 16 3.68 16 3 16 C0.54970669 10.28264895 -0.33266291 6.20970773 0 0 Z " fill="#CF5B5C" transform="translate(354,367)"/>
<path d="M0 0 C0.89203125 0.00902344 1.7840625 0.01804688 2.703125 0.02734375 C3.37859375 0.03894531 4.0540625 0.05054688 4.75 0.0625 C4.75 0.7225 4.75 1.3825 4.75 2.0625 C0.13 2.3925 -4.49 2.7225 -9.25 3.0625 C-9.25 2.4025 -9.25 1.7425 -9.25 1.0625 C-6.09493858 0.12630187 -3.28413498 -0.0432123 0 0 Z " fill="#5F6284" transform="translate(180.25,206.9375)"/>
<path d="M0 0 C3.34944548 5.02416822 3.09834146 9.09951257 3 15 C0.36 14.67 -2.28 14.34 -5 14 C-1.25 12 -1.25 12 1 12 C0.67 8.04 0.34 4.08 0 0 Z " fill="#CC4140" transform="translate(369,414)"/>
<path d="M0 0 C2.9719385 1.12451727 5.33440687 2.22293791 8 4 C8 4.66 8 5.32 8 6 C5.03 5.67 2.06 5.34 -1 5 C-0.67 3.35 -0.34 1.7 0 0 Z " fill="#3D3F66" transform="translate(187,148)"/>
<path d="M0 0 C0.99 0.33 1.98 0.66 3 1 C3.94921875 2.9609375 3.94921875 2.9609375 4.6875 5.375 C4.93886719 6.16648437 5.19023437 6.95796875 5.44921875 7.7734375 C6 10 6 10 6 13 C5.34 13 4.68 13 4 13 C3.525625 11.865625 3.05125 10.73125 2.5625 9.5625 C1.36377917 6.24259834 1.36377917 6.24259834 0 5 C-0.04063832 3.33382885 -0.042721 1.66611905 0 0 Z " fill="#CE5756" transform="translate(272,113)"/>
<path d="M0 0 C5.02692063 0.45699278 8.14896261 2.99241748 12 6 C11.67 6.66 11.34 7.32 11 8 C10.34 8 9.68 8 9 8 C9 7.34 9 6.68 9 6 C6.69 5.34 4.38 4.68 2 4 C2 3.01 2 2.02 2 1 C1.34 0.67 0.68 0.34 0 0 Z " fill="#C65D5B" transform="translate(248,320)"/>
<path d="M0 0 C4.3890815 0.51035831 7.33708062 1.52214277 11 4 C8.4345406 6.5654594 6.52313332 6.54046087 3 7 C3.33 6.34 3.66 5.68 4 5 C4.66 5 5.32 5 6 5 C6 4.34 6 3.68 6 3 C5.01 3 4.02 3 3 3 C3 2.34 3 1.68 3 1 C2.01 0.67 1.02 0.34 0 0 Z " fill="#686A86" transform="translate(409,304)"/>
<path d="M0 0 C0.33 0.66 0.66 1.32 1 2 C0.34 2 -0.32 2 -1 2 C-1.226875 2.61875 -1.45375 3.2375 -1.6875 3.875 C-3.3910866 6.63318783 -4.99902431 6.94965851 -8 8 C-8.66 8.66 -9.32 9.32 -10 10 C-10.66 9.34 -11.32 8.68 -12 8 C-8.04 5.36 -4.08 2.72 0 0 Z " fill="#D15A5A" transform="translate(371,232)"/>
<path d="M0 0 C1.98 0.495 1.98 0.495 4 1 C4.93065133 3.60582371 5.14917407 4.64198224 4.0625 7.25 C3.711875 7.8275 3.36125 8.405 3 9 C2.34 9 1.68 9 1 9 C1 7.68 1 6.36 1 5 C0.34 4.67 -0.32 4.34 -1 4 C-0.67 2.68 -0.34 1.36 0 0 Z " fill="#21275C" transform="translate(217,180)"/>
<path d="M0 0 C3.42931954 3.7559214 4.56429083 8.23466745 6 13 C5.01 13.33 4.02 13.66 3 14 C0.96006486 9.07015675 -0.40652968 5.42039575 0 0 Z " fill="#7A80A7" transform="translate(250,167)"/>
<path d="M0 0 C0.66 0.99 1.32 1.98 2 3 C1.34 3 0.68 3 0 3 C0 6.3 0 9.6 0 13 C-1.98 13.99 -1.98 13.99 -4 15 C-2.9318153 9.88634986 -1.76892524 4.92772031 0 0 Z " fill="#5E6185" transform="translate(221,122)"/>
<path d="M0 0 C0.33 0.66 0.66 1.32 1 2 C3.31 1.34 5.62 0.68 8 0 C7.45276317 3.37462715 6.9451 5.08235 5 8 C4.690625 7.0409375 4.690625 7.0409375 4.375 6.0625 C3.10461791 3.65074923 3.10461791 3.65074923 -0.125 3.25 C-1.07375 3.1675 -2.0225 3.085 -3 3 C-2.01 2.01 -1.02 1.02 0 0 Z " fill="#575985" transform="translate(174,121)"/>
<path d="M0 0 C4.24822374 0.47202486 6.19989709 2.96655518 9 6 C6.03 5.505 6.03 5.505 3 5 C2.67 5.99 2.34 6.98 2 8 C0.74335022 5.09399739 0 3.20395416 0 0 Z " fill="#74758C" transform="translate(144,113)"/>
<path d="M0 0 C0.33 0 0.66 0 1 0 C1 4.62 1 9.24 1 14 C0.67 14 0.34 14 0 14 C-0.33 12.02 -0.66 10.04 -1 8 C-1.66 8.99 -2.32 9.98 -3 11 C-2.25 3.375 -2.25 3.375 0 0 Z " fill="#212559" transform="translate(247,52)"/>
<path d="M0 0 C-0.99 0.66 -1.98 1.32 -3 2 C-3.33 2.99 -3.66 3.98 -4 5 C-6.97 4.505 -6.97 4.505 -10 4 C-10 3.34 -10 2.68 -10 2 C-3.375 -1.125 -3.375 -1.125 0 0 Z " fill="#4E4F75" transform="translate(91,306)"/>
<path d="M0 0 C0.33 0.66 0.66 1.32 1 2 C1.66 2 2.32 2 3 2 C2.67 2.66 2.34 3.32 2 4 C1.34 4 0.68 4 0 4 C-0.66 5.65 -1.32 7.3 -2 9 C-3.32 9 -4.64 9 -6 9 C-4.47291037 5.56404834 -2.40072955 2.88087546 0 0 Z " fill="#606589" transform="translate(393,282)"/>
<path d="M0 0 C2.11044382 3.16566573 2.75552077 5.51197415 3.625 9.1875 C3.88539063 10.27417969 4.14578125 11.36085937 4.4140625 12.48046875 C4.60742188 13.31191406 4.80078125 14.14335937 5 15 C4.34 15 3.68 15 3 15 C2.566875 13.2984375 2.566875 13.2984375 2.125 11.5625 C1.75375 10.386875 1.3825 9.21125 1 8 C0.34 7.67 -0.32 7.34 -1 7 C-0.67 4.69 -0.34 2.38 0 0 Z " fill="#CE514F" transform="translate(278,126)"/>
<path d="M0 0 C0.66 0.33 1.32 0.66 2 1 C0.625 2.5 0.625 2.5 -1 4 C-1.66 4 -2.32 4 -3 4 C-3.33 4.99 -3.66 5.98 -4 7 C-5.98 7.33 -7.96 7.66 -10 8 C-6.97727468 4.74475735 -3.74281699 2.38179263 0 0 Z " fill="#595B7F" transform="translate(180,369)"/>
<path d="M0 0 C0.66 0.33 1.32 0.66 2 1 C1.67 1.66 1.34 2.32 1 3 C0.34 3 -0.32 3 -1 3 C-1.33 3.99 -1.66 4.98 -2 6 C-3.32303717 6.3721042 -4.65737935 6.70630173 -6 7 C-6.33 7.66 -6.66 8.32 -7 9 C-7.99 9 -8.98 9 -10 9 C-10 8.34 -10 7.68 -10 7 C-7.8125 5.2734375 -7.8125 5.2734375 -5 3.375 C-4.071875 2.74335938 -3.14375 2.11171875 -2.1875 1.4609375 C-1.1046875 0.73777344 -1.1046875 0.73777344 0 0 Z " fill="#6D6F8D" transform="translate(210,347)"/>
<path d="M0 0 C4.67692308 1.47692308 4.67692308 1.47692308 6.3125 4.125 C6.539375 4.74375 6.76625 5.3625 7 6 C6.01 6.495 6.01 6.495 5 7 C2.69 5.35 0.38 3.7 -2 2 C-1.34 1.34 -0.68 0.68 0 0 Z " fill="#484B71" transform="translate(115,247)"/>
<path d="M0 0 C1.65 0 3.3 0 5 0 C5 0.99 5 1.98 5 3 C4.34 3 3.68 3 3 3 C3 4.65 3 6.3 3 8 C3.66 8.33 4.32 8.66 5 9 C4.01 10.485 4.01 10.485 3 12 C2.49166409 10.75336669 1.99368855 9.50250613 1.5 8.25 C1.2215625 7.55390625 0.943125 6.8578125 0.65625 6.140625 C0 4 0 4 0 0 Z " fill="#D15A57" transform="translate(280,193)"/>
<path d="M0 0 C2.89933109 5.59156709 4.25166799 9.58246635 4 16 C2.59496465 13.40608858 1.42294192 10.73026086 0.3125 8 C-0.09548828 7.01 -0.09548828 7.01 -0.51171875 6 C-1.08433496 3.65456399 -0.75352292 2.26562596 0 0 Z " fill="#CC6360" transform="translate(258,127)"/>
<path d="M0 0 C2.57146057 2.57146057 2.80117997 4.6050417 3.625 8.125 C3.88539063 9.22070312 4.14578125 10.31640625 4.4140625 11.4453125 C4.70410156 12.70988281 4.70410156 12.70988281 5 14 C3.5 12.625 3.5 12.625 2 11 C2 10.34 2 9.68 2 9 C1.34 9 0.68 9 0 9 C0 6.03 0 3.06 0 0 Z " fill="#D0625E" transform="translate(253,52)"/>
<path d="M0 0 C0.99 0.33 1.98 0.66 3 1 C0.0094833 4.33557632 -2.93184627 6.15083921 -7 8 C-7 6.35 -7 4.7 -7 3 C-4.525 3.495 -4.525 3.495 -2 4 C-2 3.01 -2 2.02 -2 1 C-1.34 0.67 -0.68 0.34 0 0 Z " fill="#636687" transform="translate(205,376)"/>
<path d="M0 0 C1.42944945 2.35438733 2.08661261 3.48032433 1.625 6.25 C1.41875 6.8275 1.2125 7.405 1 8 C0.34 8 -0.32 8 -1 8 C-1.33 10.31 -1.66 12.62 -2 15 C-2.66 15 -3.32 15 -4 15 C-3.52396226 12.87429688 -3.04407402 10.74945573 -2.5625 8.625 C-2.29566406 7.44164062 -2.02882812 6.25828125 -1.75390625 5.0390625 C-1 2 -1 2 0 0 Z " fill="#6F7394" transform="translate(145,360)"/>
<path d="M0 0 C2.18975773 3.28463659 2.99806563 6.20696275 4 10 C1.625 9.6875 1.625 9.6875 -1 9 C-1.66 8.01 -2.32 7.02 -3 6 C-2.01 6 -1.02 6 0 6 C0 4.02 0 2.04 0 0 Z " fill="#8387AA" transform="translate(301,326)"/>
<path d="M0 0 C0 0.66 0 1.32 0 2 C-0.66 2 -1.32 2 -2 2 C-2.33 2.66 -2.66 3.32 -3 4 C-3 3.34 -3 2.68 -3 2 C-7.95 2 -12.9 2 -18 2 C-18 1.67 -18 1.34 -18 1 C-16.12528812 0.83012319 -14.25021305 0.66425224 -12.375 0.5 C-11.33085938 0.4071875 -10.28671875 0.314375 -9.2109375 0.21875 C-6.12853212 0.00875645 -3.08834771 -0.03709727 0 0 Z " fill="#717395" transform="translate(102,195)"/>
<path d="M0 0 C4.43458973 1.3937282 6.87378374 3.60582235 10 7 C6.67941669 7 4.91456338 6.56938028 2 5 C0.6875 2.375 0.6875 2.375 0 0 Z " fill="#CE5151" transform="translate(314,367)"/>
<path d="M0 0 C0.66 0.33 1.32 0.66 2 1 C2 3.64 2 6.28 2 9 C2.66 9.33 3.32 9.66 4 10 C3.01 11.485 3.01 11.485 2 13 C1.46605821 11.5882217 0.94834896 10.17029756 0.4375 8.75 C0.14746094 7.96109375 -0.14257812 7.1721875 -0.44140625 6.359375 C-1.04522837 3.80896548 -0.8473932 2.44677771 0 0 Z " fill="#D05754" transform="translate(321,324)"/>
<path d="M0 0 C3.37503669 1.1858237 5.64722731 2.27573689 8 5 C7.34 5.66 6.68 6.32 6 7 C6 6.01 6 5.02 6 4 C4.35 4.33 2.7 4.66 1 5 C0.34 4.01 -0.32 3.02 -1 2 C-0.67 1.34 -0.34 0.68 0 0 Z " fill="#454873" transform="translate(116,225)"/>
<path d="M0 0 C3.36415018 2.24276679 3.48073245 2.64033012 4.25 6.375 C4.50523437 7.53128906 4.50523437 7.53128906 4.765625 8.7109375 C5.00977253 11.09544508 4.72482102 12.73234568 4 15 C3.32779649 13.06441401 2.66241923 11.12645628 2 9.1875 C1.62875 8.10855469 1.2575 7.02960938 0.875 5.91796875 C0 3 0 3 0 0 Z " fill="#CC5A5C" transform="translate(264,149)"/>
<path d="M0 0 C0.66 0 1.32 0 2 0 C2 0.66 2 1.32 2 2 C2.598125 2.268125 3.19625 2.53625 3.8125 2.8125 C5.97224808 3.98493467 7.35790256 5.19369282 9 7 C8.01 7.495 8.01 7.495 7 8 C4 7 4 7 2 5 C1.34 4.67 0.68 4.34 0 4 C0 2.68 0 1.36 0 0 Z " fill="#4E527C" transform="translate(156,122)"/>
<path d="M0 0 C0.33 0 0.66 0 1 0 C0.88557539 1.60495567 0.75805306 3.20898119 0.625 4.8125 C0.55539063 5.70582031 0.48578125 6.59914063 0.4140625 7.51953125 C0 10 0 10 -2 13 C-2.66 13 -3.32 13 -4 13 C-3.52140759 11.39566191 -3.04210442 9.79153584 -2.5625 8.1875 C-2.29566406 7.29417969 -2.02882812 6.40085937 -1.75390625 5.48046875 C-1.19612127 3.64526945 -0.60655425 1.81966274 0 0 Z " fill="#585982" transform="translate(241,65)"/>
<path d="M0 0 C2.64 0.66 5.28 1.32 8 2 C8.33 3.32 8.66 4.64 9 6 C9.66 6 10.32 6 11 6 C10.67 6.66 10.34 7.32 10 8 C8.33055479 6.85821872 6.6645052 5.71147095 5 4.5625 C4.071875 3.92441406 3.14375 3.28632813 2.1875 2.62890625 C1.465625 2.09136719 0.74375 1.55382812 0 1 C0 0.67 0 0.34 0 0 Z " fill="#D16864" transform="translate(295,379)"/>
<path d="M0 0 C0.99 0 1.98 0 3 0 C5.29612756 9.41002278 5.29612756 9.41002278 5 14 C3.38274466 10.99049877 2.32417377 8.02896392 1.375 4.75 C0.98441406 3.41195313 0.98441406 3.41195313 0.5859375 2.046875 C0.39257812 1.37140625 0.19921875 0.6959375 0 0 Z " fill="#D6726E" transform="translate(324,339)"/>
<path d="M0 0 C1.32 0 2.64 0 4 0 C4.33 2.31 4.66 4.62 5 7 C4.01 7 3.02 7 2 7 C2 5.35 2 3.7 2 2 C1.34 2 0.68 2 0 2 C0 1.34 0 0.68 0 0 Z " fill="#494F72" transform="translate(100,313)"/>
<path d="M0 0 C0.33 0.66 0.66 1.32 1 2 C1.66 2 2.32 2 3 2 C3.33 3.32 3.66 4.64 4 6 C0.88742431 6 -1.10765685 5.82638376 -4 5 C-2.68 3.35 -1.36 1.7 0 0 Z " fill="#1D245C" transform="translate(124,293)"/>
<path d="M0 0 C-0.39803561 2.88575819 -0.79009069 3.82189513 -3.0625 5.75 C-3.701875 6.1625 -4.34125 6.575 -5 7 C-6.32 6.34 -7.64 5.68 -9 5 C-7.87926138 4.16094435 -6.75325453 3.32892169 -5.625 2.5 C-4.99851562 2.0359375 -4.37203125 1.571875 -3.7265625 1.09375 C-2 0 -2 0 0 0 Z " fill="#CF4D4E" transform="translate(354,245)"/>
<path d="M0 0 C2.56616632 3.84924948 2.55097676 6.4349304 3 11 C2.38125 10.360625 1.7625 9.72125 1.125 9.0625 C-0.82597612 6.96116416 -0.82597612 6.96116416 -3 6 C-2.34 5.34 -1.68 4.68 -1 4 C-0.3574765 1.93125966 -0.3574765 1.93125966 0 0 Z " fill="#D45857" transform="translate(263,81)"/>
<path d="M0 0 C0.66 0.33 1.32 0.66 2 1 C-3.0940919 7.86214442 -3.0940919 7.86214442 -6.875 8.4375 C-7.57625 8.293125 -8.2775 8.14875 -9 8 C-6.17493137 5.0702992 -3.21203935 2.49825283 0 0 Z " fill="#676A8C" transform="translate(221,339)"/>
<path d="M0 0 C0.33 0.66 0.66 1.32 1 2 C1.66 2 2.32 2 3 2 C3.66 3.98 4.32 5.96 5 8 C3.35 7.67 1.7 7.34 0 7 C0 4.69 0 2.38 0 0 Z " fill="#D31F1B" transform="translate(251,340)"/>
<path d="M0 0 C1.32 0.66 2.64 1.32 4 2 C3.34 3.32 2.68 4.64 2 6 C0.02 5.01 -1.96 4.02 -4 3 C-2.68 2.67 -1.36 2.34 0 2 C0 1.34 0 0.68 0 0 Z " fill="#757DA8" transform="translate(295,326)"/>
<path d="M0 0 C0.99 0.33 1.98 0.66 3 1 C1.77065985 4.68802044 0.06140622 5.72356973 -3 8 C-3 6.02 -3 4.04 -3 2 C-2.01 2 -1.02 2 0 2 C0 1.34 0 0.68 0 0 Z " fill="#D14646" transform="translate(332,281)"/>
<path d="M0 0 C1.98362069 2.91708924 1.9876191 4.12380904 1.625 7.75 C1.41875 8.8225 1.2125 9.895 1 11 C-0.88391785 7.73454239 -1.49287967 4.71888239 -2 1 C-1.34 0.67 -0.68 0.34 0 0 Z " fill="#D25455" transform="translate(307,277)"/>
<path d="M0 0 C1.36125 0.37125 1.36125 0.37125 2.75 0.75 C2.75 1.41 2.75 2.07 2.75 2.75 C-0.55 3.08 -3.85 3.41 -7.25 3.75 C-4.05 -0.31153846 -4.05 -0.31153846 0 0 Z " fill="#CC3738" transform="translate(361.25,241.25)"/>
<path d="M0 0 C2 3 2 3 1.609375 5.0078125 C1.32578125 5.70648438 1.0421875 6.40515625 0.75 7.125 C0.47671875 7.82882813 0.2034375 8.53265625 -0.078125 9.2578125 C-1 11 -1 11 -3 12 C-2.49202991 7.6822542 -1.80317221 3.96697886 0 0 Z " fill="#5F6383" transform="translate(233,203)"/>
<path d="M0 0 C0 0.99 0 1.98 0 3 C-0.66 3 -1.32 3 -2 3 C-2.33 3.99 -2.66 4.98 -3 6 C-4.65 4.35 -6.3 2.7 -8 1 C-2.25 0 -2.25 0 0 0 Z " fill="#444972" transform="translate(68,209)"/>
<path d="M0 0 C1.32 0 2.64 0 4 0 C3.01 2.97 2.02 5.94 1 9 C0.67 9 0.34 9 0 9 C-0.87890625 2.84765625 -0.87890625 2.84765625 -1 1 C-0.67 0.67 -0.34 0.34 0 0 Z " fill="#53577F" transform="translate(243,115)"/>
<path d="M0 0 C0.66 0 1.32 0 2 0 C2.33 1.65 2.66 3.3 3 5 C2.01 5 1.02 5 0 5 C-0.33 5.99 -0.66 6.98 -1 8 C-1.66 8 -2.32 8 -3 8 C-2.37240135 5.07120629 -1.41377341 2.63904371 0 0 Z " fill="#CE3430" transform="translate(269,104)"/>
<path d="M0 0 C2.12508244 3.18762365 2.5020163 5.26512223 3 9 C-1.875 7.25 -1.875 7.25 -3 5 C-2.01 5 -1.02 5 0 5 C0 3.35 0 1.7 0 0 Z " fill="#D1797B" transform="translate(373,427)"/>
<path d="M0 0 C0.99 0 1.98 0 3 0 C2.4375 1.875 2.4375 1.875 1 4 C-2.625 5.25 -2.625 5.25 -6 6 C-4 4 -2 2 0 0 Z " fill="#5D6188" transform="translate(258,395)"/>
<path d="M0 0 C3.53372712 1.96318174 6.24479785 4.04070881 9 7 C8.01 7.495 8.01 7.495 7 8 C7 7.34 7 6.68 7 6 C6.21625 5.938125 5.4325 5.87625 4.625 5.8125 C3.75875 5.544375 2.8925 5.27625 2 5 C0.6875 2.4375 0.6875 2.4375 0 0 Z " fill="#D25B56" transform="translate(326,375)"/>
<path d="M0 0 C2 3 2 3 2 5 C3.32 5.33 4.64 5.66 6 6 C4.375 6.8125 4.375 6.8125 2 7 C-0.24609835 5.53181864 -2.02378677 3.84147142 -4 2 C-2.68 1.34 -1.36 0.68 0 0 Z " fill="#D25550" transform="translate(291,372)"/>
<path d="M0 0 C1.32 0.66 2.64 1.32 4 2 C3.43628586 5.26954202 2.50037734 6.82575883 0 9 C-1.53445094 5.93109813 -0.54984289 3.29905734 0 0 Z " fill="#383B6D" transform="translate(146,356)"/>
<path d="M0 0 C3.5786304 1.65167557 6.74820188 3.78286492 10 6 C8.68 6.33 7.36 6.66 6 7 C6 6.34 6 5.68 6 5 C4.35 4.67 2.7 4.34 1 4 C0.67 2.68 0.34 1.36 0 0 Z " fill="#CF605D" transform="translate(284,345)"/>
<path d="M0 0 C4.06815373 1.84916079 7.0094833 3.66442368 10 7 C7.61435923 6.42415568 5.33317216 5.77772405 3 5 C3 4.34 3 3.68 3 3 C2.01 3 1.02 3 0 3 C0 2.01 0 1.02 0 0 Z " fill="#CE5454" transform="translate(274,338)"/>
<path d="M0 0 C2.45823172 3.68734758 3.01242616 6.69699971 4 11 C2.68 10.34 1.36 9.68 0 9 C0 6.03 0 3.06 0 0 Z " fill="#CF585A" transform="translate(343,333)"/>
<path d="M0 0 C0.33 0 0.66 0 1 0 C0.67 2.97 0.34 5.94 0 9 C-1.32 7.68 -2.64 6.36 -4 5 C-3.67 4.34 -3.34 3.68 -3 3 C-2.01 3 -1.02 3 0 3 C0 2.01 0 1.02 0 0 Z " fill="#6D6C8F" transform="translate(396,329)"/>
<path d="M0 0 C0.33 0.99 0.66 1.98 1 3 C-0.32 4.32 -1.64 5.64 -3 7 C-4.32 6.34 -5.64 5.68 -7 5 C-4.69 3.35 -2.38 1.7 0 0 Z " fill="#51527B" transform="translate(235,330)"/>
<path d="M0 0 C2.31 0 4.62 0 7 0 C5.37660195 1.70884005 3.70680947 3.37446717 2 5 C1.34 5 0.68 5 0 5 C0 3.35 0 1.7 0 0 Z " fill="#D34D4D" transform="translate(386,243)"/>
<path d="M0 0 C0.33 0.66 0.66 1.32 1 2 C0.67 2.66 0.34 3.32 0 4 C-2.5625 4.625 -2.5625 4.625 -5 5 C-5 5.66 -5 6.32 -5 7 C-6.32 6.67 -7.64 6.34 -9 6 C-6.03 4.02 -3.06 2.04 0 0 Z " fill="#CE5455" transform="translate(381,225)"/>
<path d="M0 0 C0.66 0.33 1.32 0.66 2 1 C2 3.31 2 5.62 2 8 C0.68 7.34 -0.64 6.68 -2 6 C-2 5.01 -2 4.02 -2 3 C-1.34 3 -0.68 3 0 3 C0 2.01 0 1.02 0 0 Z " fill="#333668" transform="translate(68,209)"/>
<path d="M0 0 C0.33 0 0.66 0 1 0 C1.49230769 6.4 1.49230769 6.4 -1 9.4375 C-1.99 10.2109375 -1.99 10.2109375 -3 11 C-2.44894091 7.0507432 -1.61064629 3.65079826 0 0 Z " fill="#606284" transform="translate(236,80)"/>
<path d="M0 0 C1.51953125 1.23828125 1.51953125 1.23828125 3 3 C3.10118893 5.78535848 2.49854208 8.23535757 2 11 C0 9 0 9 -0.1953125 6.8359375 C-0.17210937 6.02382813 -0.14890625 5.21171875 -0.125 4.375 C-0.10695313 3.55773437 -0.08890625 2.74046875 -0.0703125 1.8984375 C-0.04710937 1.27195312 -0.02390625 0.64546875 0 0 Z " fill="#4B4E76" transform="translate(262,399)"/>
<path d="M0 0 C0 3.96 0 7.92 0 12 C-0.33 12 -0.66 12 -1 12 C-1.33 9.36 -1.66 6.72 -2 4 C-3.32 3.67 -4.64 3.34 -6 3 C-1.125 0 -1.125 0 0 0 Z " fill="#292157" transform="translate(249,322)"/>
<path d="M0 0 C0.99 0.33 1.98 0.66 3 1 C3.33 3.31 3.66 5.62 4 8 C2.68 7.67 1.36 7.34 0 7 C0 4.69 0 2.38 0 0 Z " fill="#202364" transform="translate(105,322)"/>
<path d="M0 0 C1.32 0.33 2.64 0.66 4 1 C-0.75 5 -0.75 5 -3 5 C-3.33 5.66 -3.66 6.32 -4 7 C-4.33 6.01 -4.66 5.02 -5 4 C-4.01 4 -3.02 4 -2 4 C-1.34 2.68 -0.68 1.36 0 0 Z " fill="#5D5F81" transform="translate(237,303)"/>
<path d="M0 0 C0.33 4.29 0.66 8.58 1 13 C-1.05883923 8.88232154 -1.96165128 5.45006595 -3 1 C-1 0 -1 0 0 0 Z " fill="#D45E5D" transform="translate(315,300)"/>
<path d="M0 0 C2 3 2 3 1.8125 5 C0.90059285 7.24469451 -0.18533754 8.42203265 -2 10 C-3 8 -3 8 -2.44140625 6.0546875 C-2.15136719 5.33539063 -1.86132812 4.61609375 -1.5625 3.875 C-1.27503906 3.15054688 -0.98757812 2.42609375 -0.69140625 1.6796875 C-0.46324219 1.12539062 -0.23507813 0.57109375 0 0 Z " fill="#5B5C80" transform="translate(244,175)"/>
<path d="M0 0 C2.475 0.99 2.475 0.99 5 2 C5 2.99 5 3.98 5 5 C3.02 5.99 3.02 5.99 1 7 C0.67 4.69 0.34 2.38 0 0 Z " fill="#1E265A" transform="translate(160,160)"/>
<path d="M0 0 C0 0.66 0 1.32 0 2 C-2.30368736 3.06652192 -4.64018187 4.06421005 -7 5 C-7.66 4.67 -8.32 4.34 -9 4 C-4.5 0 -4.5 0 0 0 Z " fill="#4F5275" transform="translate(152,138)"/>
<path d="M0 0 C0.66 0 1.32 0 2 0 C3.99785435 4.1205746 4.17835515 7.45194365 4 12 C0 4.28571429 0 4.28571429 0 0 Z " fill="#CC5856" transform="translate(253,116)"/>
<path d="M0 0 C3.43595166 1.52708963 6.11912454 3.59927045 9 6 C8.01 6.33 7.02 6.66 6 7 C6 6.34 6 5.68 6 5 C4.35 4.67 2.7 4.34 1 4 C0.67 2.68 0.34 1.36 0 0 Z " fill="#D36464" transform="translate(299,356)"/>
<path d="M0 0 C0.99 0.33 1.98 0.66 3 1 C3.6875 3.0625 3.6875 3.0625 4 5 C2.35 5 0.7 5 -1 5 C-0.67 3.35 -0.34 1.7 0 0 Z " fill="#37396E" transform="translate(88,307)"/>
<path d="M0 0 C0.55429687 0.15597656 1.10859375 0.31195313 1.6796875 0.47265625 C2.76636719 0.76462891 2.76636719 0.76462891 3.875 1.0625 C4.95394531 1.35833984 4.95394531 1.35833984 6.0546875 1.66015625 C8.07273593 2.21132607 8.07273593 2.21132607 10 1 C9.67 1.99 9.34 2.98 9 4 C3.48 4.368 3.48 4.368 1.125 2.5625 C0 1 0 1 0 0 Z " fill="#65688A" transform="translate(376,291)"/>
<path d="M0 0 C-0.33 1.32 -0.66 2.64 -1 4 C-3.64 4.66 -6.28 5.32 -9 6 C-3.28571429 0 -3.28571429 0 0 0 Z " fill="#CF5E5F" transform="translate(324,266)"/>
<path d="M0 0 C2 0 4 0 6 0 C6 0.99 6 1.98 6 3 C6.66 3 7.32 3 8 3 C7.67 3.99 7.34 4.98 7 6 C5.83054208 5.19152271 4.66449539 4.37810888 3.5 3.5625 C2.8503125 3.11003906 2.200625 2.65757812 1.53125 2.19140625 C1.0259375 1.79824219 0.520625 1.40507812 0 1 C0 0.67 0 0.34 0 0 Z " fill="#5B5F7F" transform="translate(167,237)"/>
<path d="M0 0 C2.64 0 5.28 0 8 0 C8 0.99 8 1.98 8 3 C6.02 3.99 6.02 3.99 4 5 C4.33 3.68 4.66 2.36 5 1 C3.35 1 1.7 1 0 1 C0 0.67 0 0.34 0 0 Z " fill="#7B7F9C" transform="translate(332,229)"/>
<path d="M0 0 C0.33 0.99 0.66 1.98 1 3 C0.34 3 -0.32 3 -1 3 C-1.33 3.99 -1.66 4.98 -2 6 C-3.65 6 -5.3 6 -7 6 C-2.25 1.125 -2.25 1.125 0 0 Z " fill="#D05455" transform="translate(389,219)"/>
<path d="M0 0 C0.66 0 1.32 0 2 0 C0.9024777 2.99324263 0.32317108 3.84610901 -2.625 5.25 C-3.40875 5.4975 -4.1925 5.745 -5 6 C-4.67 4.35 -4.34 2.7 -4 1 C-2.02 1.495 -2.02 1.495 0 2 C0 1.34 0 0.68 0 0 Z " fill="#CE4849" transform="translate(423,219)"/>
<path d="M0 0 C-0.66 1.32 -1.32 2.64 -2 4 C-4.475 3.01 -4.475 3.01 -7 2 C-7 1.34 -7 0.68 -7 0 C-4.3333581 -1.33332095 -2.83319697 -0.67102033 0 0 Z " fill="#1E255E" transform="translate(178,124)"/>
<path d="M0 0 C0.99 0.33 1.98 0.66 3 1 C2.67 1.66 2.34 2.32 2 3 C2.33 3.99 2.66 4.98 3 6 C2.01 6.495 2.01 6.495 1 7 C1 6.01 1 5.02 1 4 C-0.32 4.33 -1.64 4.66 -3 5 C-1.125 1.125 -1.125 1.125 0 0 Z " fill="#1F245B" transform="translate(236,88)"/>
<path d="M0 0 C1.4606285 2.64738916 2 3.89448334 2 7 C1.01 7 0.02 7 -1 7 C-1.33 7.99 -1.66 8.98 -2 10 C-1.46274105 6.62294375 -0.88935377 3.303314 0 0 Z " fill="#626485" transform="translate(163,304)"/>
<path d="M0 0 C0.66 0.33 1.32 0.66 2 1 C1.67 2.65 1.34 4.3 1 6 C-0.65 5.67 -2.3 5.34 -4 5 C-2.68 3.35 -1.36 1.7 0 0 Z " fill="#4A4E71" transform="translate(398,277)"/>
<path d="M0 0 C1.98 0 3.96 0 6 0 C6.33 0.99 6.66 1.98 7 3 C5.02 3.33 3.04 3.66 1 4 C0.67 2.68 0.34 1.36 0 0 Z " fill="#1E2459" transform="translate(145,267)"/>
<path d="M0 0 C-0.33 1.32 -0.66 2.64 -1 4 C-3.31 4.33 -5.62 4.66 -8 5 C-3.22727273 0 -3.22727273 0 0 0 Z " fill="#D45B5E" transform="translate(332,261)"/>
<path d="M0 0 C0.99 0.33 1.98 0.66 3 1 C1.35 2.65 -0.3 4.3 -2 6 C-2.99 5.67 -3.98 5.34 -5 5 C-4.01 4.67 -3.02 4.34 -2 4 C-0.79117904 1.99983534 -0.79117904 1.99983534 0 0 Z " fill="#8186AE" transform="translate(311,249)"/>
<path d="M0 0 C2.97 1.65 5.94 3.3 9 5 C5.86650268 6.04449911 5.01031744 5.93423645 2 5 C2 4.01 2 3.02 2 2 C1.34 2 0.68 2 0 2 C0 1.34 0 0.68 0 0 Z " fill="#696B8F" transform="translate(130,234)"/>
<path d="M0 0 C0.66 0 1.32 0 2 0 C2.33 2.31 2.66 4.62 3 7 C0.525 6.01 0.525 6.01 -2 5 C-1.34 3.35 -0.68 1.7 0 0 Z " fill="#1F255D" transform="translate(234,136)"/>
<path d="M0 0 C2.97 0.495 2.97 0.495 6 1 C4.68 2.32 3.36 3.64 2 5 C1.34 4.34 0.68 3.68 0 3 C0 2.01 0 1.02 0 0 Z " fill="#24285A" transform="translate(147,118)"/>
<path d="M0 0 C0.66 0.33 1.32 0.66 2 1 C1.67 1.99 1.34 2.98 1 4 C0.34 4 -0.32 4 -1 4 C-1 4.66 -1 5.32 -1 6 C-2.98 6.99 -2.98 6.99 -5 8 C-3.8141763 4.62496331 -2.72426311 2.35277269 0 0 Z " fill="#4B4F75" transform="translate(193,359)"/>
<path d="M0 0 C0.99 0.33 1.98 0.66 3 1 C-0.75 4 -0.75 4 -3 4 C-3.33 4.66 -3.66 5.32 -4 6 C-4.33 4.35 -4.66 2.7 -5 1 C-4.67 1.66 -4.34 2.32 -4 3 C-3.34 3 -2.68 3 -2 3 C-2 2.34 -2 1.68 -2 1 C-1.34 0.67 -0.68 0.34 0 0 Z " fill="#5E5E81" transform="translate(246,347)"/>
<path d="M0 0 C2.64 1.65 5.28 3.3 8 5 C6.02 5.99 6.02 5.99 4 7 C0 2.25 0 2.25 0 0 Z " fill="#D25957" transform="translate(266,332)"/>
<path d="M0 0 C0.89694794 3.58779175 1.08304117 6.34618837 1 10 C0.01 10 -0.98 10 -2 10 C-1.34 6.7 -0.68 3.4 0 0 Z " fill="#666B88" transform="translate(197,326)"/>
<path d="M0 0 C0.33 0.66 0.66 1.32 1 2 C0.34 1.67 -0.32 1.34 -1 1 C-0.67 0.67 -0.34 0.34 0 0 Z M-4 1 C-3.01 1.33 -2.02 1.66 -1 2 C-1.3125 3.9375 -1.3125 3.9375 -2 6 C-2.99 6.33 -3.98 6.66 -5 7 C-4.67 5.02 -4.34 3.04 -4 1 Z " fill="#464A7A" transform="translate(203,319)"/>
<path d="M0 0 C0.66 0 1.32 0 2 0 C1.71848913 1.31471568 1.42446661 2.62675767 1.125 3.9375 C0.96257812 4.66839844 0.80015625 5.39929688 0.6328125 6.15234375 C0 8 0 8 -2 9 C-2.20140476 5.37471432 -1.85776765 3.13498292 0 0 Z " fill="#4F5375" transform="translate(181,315)"/>
<path d="M0 0 C1.65 0 3.3 0 5 0 C4.34 1.32 3.68 2.64 3 4 C1.68 3.67 0.36 3.34 -1 3 C-0.67 2.01 -0.34 1.02 0 0 Z " fill="#494C71" transform="translate(220,314)"/>
<path d="M0 0 C0.66 0.33 1.32 0.66 2 1 C2 1.66 2 2.32 2 3 C1.34 3 0.68 3 0 3 C-0.33 3.99 -0.66 4.98 -1 6 C-2.32 4.68 -3.64 3.36 -5 2 C-2.625 0.9375 -2.625 0.9375 0 0 Z " fill="#7F7F97" transform="translate(136,285)"/>
<path d="M0 0 C4.875 4.75 4.875 4.75 6 7 C3.50638429 5.79618552 1.31856917 4.54571278 -1 3 C-0.67 2.01 -0.34 1.02 0 0 Z " fill="#5C5F85" transform="translate(154,274)"/>
<path d="M0 0 C6.64615385 1.47692308 6.64615385 1.47692308 8.4375 4.125 C8.7159375 5.053125 8.7159375 5.053125 9 6 C2.25 3.375 2.25 3.375 0 0 Z " fill="#737591" transform="translate(131,261)"/>
<path d="M0 0 C0.66 0 1.32 0 2 0 C1.6875 1.875 1.6875 1.875 1 4 C0.01 4.66 -0.98 5.32 -2 6 C-2.66 5.34 -3.32 4.68 -4 4 C-2.68 3.34 -1.36 2.68 0 2 C0 1.34 0 0.68 0 0 Z " fill="#52557D" transform="translate(323,137)"/>
<path d="M0 0 C0.625 1.875 0.625 1.875 1 4 C0.34 4.66 -0.32 5.32 -1 6 C-1 5.34 -1 4.68 -1 4 C-2.32 4.33 -3.64 4.66 -5 5 C-3.35 3.35 -1.7 1.7 0 0 Z " fill="#5C6587" transform="translate(229,416)"/>
<path d="M0 0 C2.125 0.9375 2.125 0.9375 4 2 C1.69 3.32 -0.62 4.64 -3 6 C-2.625 3.5625 -2.625 3.5625 -2 1 C-1.34 0.67 -0.68 0.34 0 0 Z " fill="#616384" transform="translate(156,410)"/>
<path d="M0 0 C1.32 0.66 2.64 1.32 4 2 C4 2.99 4 3.98 4 5 C2.02 5.33 0.04 5.66 -2 6 C-1.34 4.02 -0.68 2.04 0 0 Z " fill="#1F2459" transform="translate(240,397)"/>
<path d="M0 0 C1.65 0 3.3 0 5 0 C4.34 1.32 3.68 2.64 3 4 C2.01 4 1.02 4 0 4 C0 2.68 0 1.36 0 0 Z " fill="#4C4F78" transform="translate(173,397)"/>
<path d="M0 0 C1.98 0.66 3.96 1.32 6 2 C5.360625 2.12375 4.72125 2.2475 4.0625 2.375 C3.381875 2.58125 2.70125 2.7875 2 3 C1.67 3.66 1.34 4.32 1 5 C0.01 4.67 -0.98 4.34 -2 4 C-2 3.34 -2 2.68 -2 2 C-1.34 2 -0.68 2 0 2 C0 1.34 0 0.68 0 0 Z " fill="#1D245C" transform="translate(373,292)"/>
<path d="M0 0 C0.99 0.33 1.98 0.66 3 1 C3 1.66 3 2.32 3 3 C3.66 3 4.32 3 5 3 C4.34 4.32 3.68 5.64 3 7 C1.5 5.75 1.5 5.75 0 4 C0 2.68 0 1.36 0 0 Z " fill="#202657" transform="translate(186,282)"/>
<path d="M0 0 C0.28875 0.598125 0.5775 1.19625 0.875 1.8125 C2.04742026 4.19327792 2.04742026 4.19327792 4 7 C3.01 8.485 3.01 8.485 2 10 C1.01 7.03 0.02 4.06 -1 1 C-0.67 0.67 -0.34 0.34 0 0 Z " fill="#CD5355" transform="translate(277,183)"/>
<path d="M0 0 C2.29013653 3.4352048 2.17842973 4.985331 2 9 C1.01 9 0.02 9 -1 9 C-0.67 6.03 -0.34 3.06 0 0 Z " fill="#CF4D4B" transform="translate(293,169)"/>
<path d="M0 0 C0.33 1.32 0.66 2.64 1 4 C1.33 4.66 1.66 5.32 2 6 C1.01 7.485 1.01 7.485 0 9 C-0.66 9 -1.32 9 -2 9 C-1.34 6.03 -0.68 3.06 0 0 Z " fill="#666A8C" transform="translate(207,162)"/>
<path d="M0 0 C-0.33 1.65 -0.66 3.3 -1 5 C-2.65 4.67 -4.3 4.34 -6 4 C-2.25 0 -2.25 0 0 0 Z " fill="#696983" transform="translate(184,115)"/>
</svg>
