<svg xmlns="http://www.w3.org/2000/svg" viewBox="0 0 502 512">
  <path d="M157.1 91.6l-5.5 32.2H135.5c-9 0-13.6 .7-13.6 7v15.6h10.5c9.3 0 10.5 .2 10.5 1.7c0 1.8-4.5 27.8-5.5 32.1c-.5 2.2-.9 2.3-12 2.3H114v15.6 15.6h8.4c4.7 0 8.7 .3 8.9 .7c.3 .5-.3 5.3-1.3 10.8s-2.3 13.4-3 17.3l-1.2 7.3h-13-13v15.1 15.1H241.5 383v-15.1-15.1h-78.3-78.3v-2.1c0-2.8 5-32.1 5.6-33.2c.3-.4 37.3-.8 82.3-.8h81.7v-15.6-15.6h-79.3c-57 0-79.3-.3-79.3-1.1c0-1 4.4-26.2 5.6-32.3l.6-2.7h80.7 80.8l-.3-15.4-.3-15.3-9.3-.3c-8.9-.3-9.2-.3-8.7-2.5c.6-3 5.5-31.3 5.5-32.1c0-.4-7.2-.7-16.1-.7s-16.1 .4-16.1 .8c0 .9-4.8 28.8-5.5 32c-.5 2.3-.7 2.3-18.1 2.3c-9.6 0-17.6-.2-17.6-.5c0-.7 5-29.8 5.5-32.4l.5-2.2h-16.1-16.1l-1.5 2.2c-.5 2.6-5.5 31.7-5.5 32.4c0 .3-8.5 .5-18.9 .5l-19 0 2.8-15.9c1.6-8.6 2.8-16.6 2.9-17.6c0-1.5-1.4-1.7-16.1-1.7c-8.8 0-16.1 .2-16.1 .5c0 .7-5 29.8-5.5 32.3c-.5 2.3-.7 2.3-18.2 2.3H180l.5-2.3c.3-1.2 1.5-7.8 2.7-14.8c1.1-6.9 2.3-13.8 2.6-15.4l.6-2.7h-16.2c-15.9 0-16.2 0-16.7 2.2zm56.7 64.7c0 1.7-4.6 30.1-5.5 34.2c-.5 2.3-.7 2.3-18.6 2.3c-12.6 0-18.1-.3-18.1-1.1c0-1.2 4.6-29.5 5.6-34.3l.6-2.7h18c15.9 0 18 .2 18 1.6zm-12 67.3c0 .9-4.9 30.7-5.5 33.2c-.5 2.3-.7 2.3-18.1 2.3h-17.6l.5-2.3c.2-1.2 1.6-8.9 3-17.3c1.5-8.2 2.9-15.4 3.1-15.8c.6-.9 34.5-1.1 34.5-.2zM93.4 341.3v15.1h9c7.4 0 9 .3 9 1.5c0 .9-1.1 8.1-2.5 16.2s-2.5 15.7-2.5 17.1l0 2.4H122c15.3 0 15.6 0 16.1-2.3c.3-1.2 1.8-9.4 3.3-18.3l2.8-16.1 17.3-.3 17.3-.2v2.2c0 1.3-1.1 8.8-2.5 16.9s-2.5 15.4-2.5 16.3c0 1.6 1.4 1.8 15.9 1.8h15.9l3-18.4 2.9-18.3 19.4-.3c12.7-.2 19.3 .1 19.3 .8c0 1.2-4.8 30.5-5.5 33.8l-.5 2.3H260c8.8 0 16.1-.1 16.1-.3c.1-.1 1.5-8.3 3.3-18.3l3.2-18.1 17.4-.3c16-.2 17.3-.1 17.3 1.5c0 1-1.1 8.3-2.5 16.4s-2.5 15.6-2.5 16.9l0 2.3 15.8-.3 15.8-.3 3.1-18.1 3-18.1 13.4-.3 13.3-.3v-15-15.1l-141.6 0-141.6 0v15.1z" 
    fill="url(#japanese-gradient)"/>
  <defs>
    <linearGradient id="japanese-gradient" x1="20%" y1="80%" x2="80%" y2="20%" gradientUnits="userSpaceOnUse">
      <stop offset="0" stop-color="#091f40"/>
      <stop offset="1" stop-color="#c5203e"/>
    </linearGradient>
  </defs>
</svg>