<svg width="800" height="800" viewBox="0 0 800 800" fill="none" xmlns="http://www.w3.org/2000/svg">
<path d="M591.079 474.525C586.493 459.981 574.211 449.647 559.102 447.511L473.598 435.543L434.993 360.06C434.208 358.52 433.046 357.295 432.072 355.882L526.088 318.282C559.07 305.089 580.399 273.614 580.399 238.087V154.971C580.399 124.658 555.741 100 525.428 100H274.132C243.82 100 219.161 124.658 219.161 154.971V238.087C219.161 273.614 240.49 305.089 273.473 318.282L367.866 356.039C366.955 357.39 365.824 358.583 365.039 360.06L326.433 435.543L240.93 447.511C225.821 449.647 213.57 459.981 208.984 474.494C204.366 489.006 208.387 504.555 219.476 514.984L280.446 572.342L265.997 653.824C263.389 668.557 269.201 683.289 281.231 692.21C288.173 697.361 296.341 700 304.602 700C310.664 700 316.758 698.586 322.413 695.728L400 656.369L477.588 695.728C490.938 702.45 506.707 701.162 518.769 692.241C530.8 683.289 536.642 668.588 534.004 653.856L519.554 572.373L580.493 515.046C591.613 504.586 595.634 489.1 591.016 474.556L591.079 474.525ZM486.195 147.087H525.46C529.794 147.087 533.312 150.605 533.312 154.94V238.056C533.312 254.201 523.606 268.525 508.623 274.525L486.195 283.509V147.087ZM313.429 283.477L291.001 274.493C276.017 268.494 266.311 254.201 266.311 238.024V154.908C266.311 150.573 269.829 147.055 274.164 147.055H313.429V283.446V283.477ZM360.547 147.087H439.077V302.325L399.812 318.03L360.547 302.325V147.087ZM478.027 546.772C472.248 552.238 469.578 560.217 470.991 568.07L484.938 646.6L410.743 608.937C407.413 607.24 403.738 606.392 400.094 606.392C396.451 606.392 392.775 607.24 389.446 608.937L315.251 646.6L329.198 568.07C330.58 560.217 327.941 552.238 322.161 546.772L263.829 491.896L345.218 480.493C352.819 479.425 359.447 474.713 362.934 467.897L400.126 395.178L437.318 467.897C440.804 474.745 447.432 479.457 455.034 480.493L536.422 491.896L478.09 546.772H478.027Z" fill="url(#paint0_linear_508_1010)"/>
<defs>
<linearGradient id="paint0_linear_508_1010" x1="228.868" y1="662.243" x2="550.149" y2="105.748" gradientUnits="userSpaceOnUse">
<stop stop-color="#091f40"/>
<stop offset="1" stop-color="#c5203e"/>
</linearGradient>
</defs>
</svg>