<svg xmlns="http://www.w3.org/2000/svg" viewBox="0 0 395 397" version="1.1" width="395px" height="397px">
    <g transform="translate(-51.000000, -1390.000000)">
        <g transform="translate(-28.000000, 963.000000)">
            <path d="M353.907509,817.715288 C386.112868,835.281848 455.192882,815.572841 468.907509,740.715288 C483.008804,663.747218 442.907509,661.715288 449.907509,633.715288 C478,592 483.008804,538.76355 453.907509,506.715288 C381.907509,431.715288 363.907509,521.715288 303.907509,466.715288 C279.650772,442.458551 242.907509,413.715288 189.907509,433.715288 C114.974471,461.991907 132.907509,521.005066 132.907509,563.715288 C132.907509,578.753612 85.1423289,607.023718 79.9075093,645.715288 C73.306976,694.501115 103.907509,758.715288 132.907509,780.715288 C178.907509,832.715288 249.907509,820.715288 281.907509,802.715288 C309.384918,787.259246 331.907509,805.715288 353.907509,817.715288 Z"></path>
        </g>
    </g>
</svg>